{"accessors":[{"bufferView":0,"componentType":5123,"count":1344,"max":[284],"min":[0],"type":"SCALAR"},{"bufferView":1,"componentType":5126,"count":285,"max":[0.6124560236930847,0.1809912621974945,0.003436389146372676],"min":[-0.6126794219017029,-0.3314659893512726,-0.0024895344395190477],"type":"VEC3"},{"bufferView":2,"componentType":5126,"count":285,"max":[0.8362441062927246,0.811681866645813,-0.3585143983364105],"min":[-0.8250847458839417,-0.7874903678894043,-0.9432506561279297],"type":"VEC3"},{"bufferView":3,"componentType":5126,"count":285,"max":[1.0,1.0,0.6857689023017883,1.0],"min":[-0.7349363565444946,-1.0,-0.683320939540863,1.0],"type":"VEC4"},{"bufferView":4,"componentType":5126,"count":285,"max":[8.321150779724121,0.5319116711616516],"min":[-7.321150779724121,0.46808844804763794],"type":"VEC2"},{"bufferView":5,"componentType":5123,"count":1344,"max":[284],"min":[0],"type":"SCALAR"},{"bufferView":6,"componentType":5126,"count":285,"max":[0.6124560236930847,0.1809912621974945,0.003436389146372676],"min":[-0.6126794219017029,-0.3314659893512726,-0.0024895344395190477],"type":"VEC3"},{"bufferView":7,"componentType":5126,"count":285,"max":[0.8362441062927246,0.811681866645813,-0.3585143983364105],"min":[-0.8250847458839417,-0.7874903678894043,-0.9432506561279297],"type":"VEC3"},{"bufferView":8,"componentType":5126,"count":285,"max":[1.0,1.0,0.6857689023017883,1.0],"min":[-0.7349363565444946,-1.0,-0.683320939540863,1.0],"type":"VEC4"},{"bufferView":9,"componentType":5126,"count":285,"max":[8.321150779724121,0.5319116711616516],"min":[-7.321150779724121,0.46808844804763794],"type":"VEC2"},{"bufferView":10,"componentType":5123,"count":2880,"max":[711],"min":[0],"type":"SCALAR"},{"bufferView":11,"componentType":5126,"count":712,"max":[0.6109508275985718,0.242427796125412,0.10063602030277252],"min":[-0.610832929611206,-0.273883581161499,-0.05702872574329376],"type":"VEC3"},{"bufferView":12,"componentType":5126,"count":712,"max":[0.7275397181510925,0.9999996423721313,1.0],"min":[-0.7109476327896118,-1.0,-0.8334140777587891],"type":"VEC3"},{"bufferView":13,"componentType":5126,"count":712,"max":[1.0,0.7108842730522156,0.686316192150116,1.0],"min":[0.6859028339385986,-0.7275814414024353,-0.7048698663711548,1.0],"type":"VEC4"},{"bufferView":14,"componentType":5126,"count":712,"max":[0.6154147386550903,0.99609375],"min":[0.00390625,0.3455001711845398],"type":"VEC2"},{"bufferView":15,"componentType":5126,"count":712,"max":[5.155895709991455,0.9472655653953552],"min":[-4.155478477478027,0.5007828772068024],"type":"VEC2"},{"bufferView":16,"componentType":5126,"count":712,"max":[2.6997883319854736,0.8911257386207581],"min":[-1.6997883319854736,0.5000222325325012],"type":"VEC2"},{"bufferView":17,"componentType":5126,"count":712,"max":[0.08454743027687073,0.9247537553310394],"min":[0.08454743027687073,0.9247537553310394],"type":"VEC2"},{"bufferView":18,"componentType":5126,"count":712,"max":[0.08764782547950745,0.9154525697231293],"min":[0.08764782547950745,0.9154525697231293],"type":"VEC2"},{"bufferView":19,"componentType":5126,"count":712,"max":[0.08764782547950745,0.9154525697231293],"min":[0.08764782547950745,0.9154525697231293],"type":"VEC2"},{"bufferView":20,"componentType":5123,"count":3168,"max":[775],"min":[0],"type":"SCALAR"},{"bufferView":21,"componentType":5126,"count":776,"max":[0.6172173023223877,0.23563283681869507,0.09728202223777771],"min":[-0.618276834487915,-0.2733965516090393,-0.05550923943519592],"type":"VEC3"},{"bufferView":22,"componentType":5126,"count":776,"max":[1.0,0.7066155672073364,0.7822809815406799],"min":[-1.0,-0.9867479801177979,-0.8334140777587891],"type":"VEC3"},{"bufferView":23,"componentType":5126,"count":776,"max":[0.7822667956352234,0.3008132576942444,0.9999979734420776,1.0],"min":[-0.8010234832763672,-0.2980394959449768,-0.9999948143959045,1.0],"type":"VEC4"},{"bufferView":24,"componentType":5126,"count":776,"max":[0.7132154703140259,0.9960693009197712],"min":[0.6248095035552979,0.4741501808166504],"type":"VEC2"},{"bufferView":25,"componentType":5126,"count":776,"max":[9.046496391296387,0.9472655653953552],"min":[-8.046496391296387,0.5007828772068024],"type":"VEC2"},{"bufferView":26,"componentType":5126,"count":776,"max":[2.6997883319854736,0.8911257386207581],"min":[-1.6997883319854736,0.46614277362823486],"type":"VEC2"},{"bufferView":27,"componentType":5126,"count":776,"max":[0.08454743027687073,0.9247537553310394],"min":[0.08454743027687073,0.9247537553310394],"type":"VEC2"},{"bufferView":28,"componentType":5126,"count":776,"max":[0.08764782547950745,0.9154525697231293],"min":[0.08764782547950745,0.9154525697231293],"type":"VEC2"},{"bufferView":29,"componentType":5126,"count":776,"max":[0.08764782547950745,0.9154525697231293],"min":[0.08764782547950745,0.9154525697231293],"type":"VEC2"},{"bufferView":30,"componentType":5123,"count":2064,"max":[487],"min":[0],"type":"SCALAR"},{"bufferView":31,"componentType":5126,"count":488,"max":[0.6096591949462891,0.23614531755447388,-0.054416291415691376],"min":[-0.6096312999725342,-0.2733965516090393,-0.05864962935447693],"type":"VEC3"},{"bufferView":32,"componentType":5126,"count":488,"max":[0.6691128611564636,0.6342400312423706,-0.2051869034767151],"min":[-0.6593164205551147,-0.9787228107452393,-1.0],"type":"VEC3"},{"bufferView":33,"componentType":5126,"count":488,"max":[-0.7430714964866638,0.09760560095310211,0.6588213443756104,1.0],"min":[-1.0,-0.0982881411910057,-0.6685917377471924,1.0],"type":"VEC4"},{"bufferView":34,"componentType":5126,"count":488,"max":[0.6142233610153198,0.6871940195560455],"min":[0.00390625,0.43081438541412354],"type":"VEC2"},{"bufferView":35,"componentType":5126,"count":488,"max":[9.046496391296387,0.9472655653953552],"min":[-8.046496391296387,0.4651288390159607],"type":"VEC2"},{"bufferView":36,"componentType":5126,"count":488,"max":[0.08845922350883484,0.8911257386207581],"min":[0.08845920115709305,0.8911256790161133],"type":"VEC2"},{"bufferView":37,"componentType":5126,"count":488,"max":[0.08454743027687073,0.9247537553310394],"min":[0.08454743027687073,0.9247537553310394],"type":"VEC2"},{"bufferView":38,"componentType":5126,"count":488,"max":[0.08764782547950745,0.9154525697231293],"min":[0.08764782547950745,0.9154525697231293],"type":"VEC2"},{"bufferView":39,"componentType":5126,"count":488,"max":[0.08764782547950745,0.9154525697231293],"min":[0.08764782547950745,0.9154525697231293],"type":"VEC2"},{"bufferView":40,"componentType":5123,"count":1248,"max":[269],"min":[0],"type":"SCALAR"},{"bufferView":41,"componentType":5126,"count":270,"max":[0.6125611066818237,0.18896368145942688,0.06399597227573395],"min":[-0.6127639412879944,-0.3229427933692932,-0.09095501899719238],"type":"VEC3"},{"bufferView":42,"componentType":5126,"count":270,"max":[0.8572505712509155,0.8443776965141296,0.9050874710083008],"min":[-0.8467360734939575,-0.7877085208892822,-0.7848453521728516],"type":"VEC3"},{"bufferView":43,"componentType":5126,"count":270,"max":[0.5597265362739563,0.9999967813491821,0.9999381303787231,1.0],"min":[-0.7383538484573364,-0.9999978542327881,-0.9999385476112366,1.0],"type":"VEC4"},{"bufferView":44,"componentType":5126,"count":270,"max":[2.602540969848633,0.5320145487785339],"min":[-1.6025406122207642,0.4679855704307556],"type":"VEC2"},{"bufferView":45,"componentType":5123,"count":3168,"max":[577],"min":[0],"type":"SCALAR"},{"bufferView":46,"componentType":5126,"count":578,"max":[0.6054259538650513,0.1819796860218048,0.0015992484986782074],"min":[-0.6054259538650513,-0.32164621353149414,-0.0015757645014673471],"type":"VEC3"},{"bufferView":47,"componentType":5126,"count":578,"max":[0.9999905228614807,0.9999933838844299,1.0],"min":[-0.9999903440475464,-0.9999739527702332,-1.0],"type":"VEC3"},{"bufferView":48,"componentType":5126,"count":578,"max":[1.0,0.5544333457946777,0.9999903440475464,1.0],"min":[-1.0,-0.5538566708564758,-0.9999904632568359,1.0],"type":"VEC4"},{"bufferView":49,"componentType":5126,"count":578,"max":[0.6099528670310974,0.99609375],"min":[0.00390625,0.48330771923065186],"type":"VEC2"},{"bufferView":50,"componentType":5123,"count":1824,"max":[350],"min":[0],"type":"SCALAR"},{"bufferView":51,"componentType":5126,"count":351,"max":[0.6121482253074646,0.1463364064693451,0.0028703801799565554],"min":[-0.6122698783874512,-0.36645105481147766,-0.0026433325838297606],"type":"VEC3"},{"bufferView":52,"componentType":5126,"count":351,"max":[0.9978579878807068,0.9978582262992859,0.9990948438644409],"min":[-0.9978612065315247,-0.9978561401367188,-0.9978545308113098],"type":"VEC3"},{"bufferView":53,"componentType":5126,"count":351,"max":[0.9474917650222778,0.9952818155288696,0.9593263268470764,1.0],"min":[-0.9973089694976807,-0.9978708028793335,-0.9024796485900879,1.0],"type":"VEC4"},{"bufferView":54,"componentType":5126,"count":351,"max":[0.8634253740310669,0.9958111643791199],"min":[0.004241883754730225,0.2723656892776489],"type":"VEC2"},{"bufferView":55,"componentType":5123,"count":2304,"max":[449],"min":[0],"type":"SCALAR"},{"bufferView":56,"componentType":5126,"count":450,"max":[0.6122573614120483,0.16419339179992676,0.0698099434375763],"min":[-0.6122571229934692,-0.34800219535827637,-0.08691872656345367],"type":"VEC3"},{"bufferView":57,"componentType":5126,"count":450,"max":[0.9998785853385925,0.9940946698188782,0.9950351119041443],"min":[-0.9998785853385925,-0.994884729385376,-0.995078980922699],"type":"VEC3"},{"bufferView":58,"componentType":5126,"count":450,"max":[0.9810158610343933,0.9882944226264954,0.9977033138275146,1.0],"min":[-0.9978259801864624,-0.9950345754623413,-0.9991605877876282,1.0],"type":"VEC4"},{"bufferView":59,"componentType":5126,"count":450,"max":[0.23525729775428772,0.9957844465970993],"min":[0.004210822284221649,0.7611546516418457],"type":"VEC2"},{"bufferView":60,"componentType":5123,"count":1824,"max":[350],"min":[0],"type":"SCALAR"},{"bufferView":61,"componentType":5126,"count":351,"max":[0.6121482253074646,0.1463364064693451,0.0028703801799565554],"min":[-0.6122698783874512,-0.36645105481147766,-0.0026433325838297606],"type":"VEC3"},{"bufferView":62,"componentType":5126,"count":351,"max":[0.9978579878807068,0.9978582262992859,0.9990948438644409],"min":[-0.9978612065315247,-0.9978561401367188,-0.9978545308113098],"type":"VEC3"},{"bufferView":63,"componentType":5126,"count":351,"max":[0.9474917650222778,0.9952818155288696,0.9593263268470764,1.0],"min":[-0.9973089694976807,-0.9978708028793335,-0.9024796485900879,1.0],"type":"VEC4"},{"bufferView":64,"componentType":5126,"count":351,"max":[0.8634253740310669,0.9958111643791199],"min":[0.004241883754730225,0.2723656892776489],"type":"VEC2"}],"asset":{"generator":"Verge3D for Blender","version":"2.0"},"bufferViews":[{"buffer":0,"byteLength":2688,"byteOffset":0,"target":34963},{"buffer":0,"byteLength":3420,"byteOffset":2688,"target":34962},{"buffer":0,"byteLength":3420,"byteOffset":6108,"target":34962},{"buffer":0,"byteLength":4560,"byteOffset":9528,"target":34962},{"buffer":0,"byteLength":2280,"byteOffset":14088,"target":34962},{"buffer":0,"byteLength":2688,"byteOffset":16368,"target":34963},{"buffer":0,"byteLength":3420,"byteOffset":19056,"target":34962},{"buffer":0,"byteLength":3420,"byteOffset":22476,"target":34962},{"buffer":0,"byteLength":4560,"byteOffset":25896,"target":34962},{"buffer":0,"byteLength":2280,"byteOffset":30456,"target":34962},{"buffer":0,"byteLength":5760,"byteOffset":32736,"target":34963},{"buffer":0,"byteLength":8544,"byteOffset":38496,"target":34962},{"buffer":0,"byteLength":8544,"byteOffset":47040,"target":34962},{"buffer":0,"byteLength":11392,"byteOffset":55584,"target":34962},{"buffer":0,"byteLength":5696,"byteOffset":66976,"target":34962},{"buffer":0,"byteLength":5696,"byteOffset":72672,"target":34962},{"buffer":0,"byteLength":5696,"byteOffset":78368,"target":34962},{"buffer":0,"byteLength":5696,"byteOffset":84064,"target":34962},{"buffer":0,"byteLength":5696,"byteOffset":89760,"target":34962},{"buffer":0,"byteLength":5696,"byteOffset":95456,"target":34962},{"buffer":0,"byteLength":6336,"byteOffset":101152,"target":34963},{"buffer":0,"byteLength":9312,"byteOffset":107488,"target":34962},{"buffer":0,"byteLength":9312,"byteOffset":116800,"target":34962},{"buffer":0,"byteLength":12416,"byteOffset":126112,"target":34962},{"buffer":0,"byteLength":6208,"byteOffset":138528,"target":34962},{"buffer":0,"byteLength":6208,"byteOffset":144736,"target":34962},{"buffer":0,"byteLength":6208,"byteOffset":150944,"target":34962},{"buffer":0,"byteLength":6208,"byteOffset":157152,"target":34962},{"buffer":0,"byteLength":6208,"byteOffset":163360,"target":34962},{"buffer":0,"byteLength":6208,"byteOffset":169568,"target":34962},{"buffer":0,"byteLength":4128,"byteOffset":175776,"target":34963},{"buffer":0,"byteLength":5856,"byteOffset":179904,"target":34962},{"buffer":0,"byteLength":5856,"byteOffset":185760,"target":34962},{"buffer":0,"byteLength":7808,"byteOffset":191616,"target":34962},{"buffer":0,"byteLength":3904,"byteOffset":199424,"target":34962},{"buffer":0,"byteLength":3904,"byteOffset":203328,"target":34962},{"buffer":0,"byteLength":3904,"byteOffset":207232,"target":34962},{"buffer":0,"byteLength":3904,"byteOffset":211136,"target":34962},{"buffer":0,"byteLength":3904,"byteOffset":215040,"target":34962},{"buffer":0,"byteLength":3904,"byteOffset":218944,"target":34962},{"buffer":0,"byteLength":2496,"byteOffset":222848,"target":34963},{"buffer":0,"byteLength":3240,"byteOffset":225344,"target":34962},{"buffer":0,"byteLength":3240,"byteOffset":228584,"target":34962},{"buffer":0,"byteLength":4320,"byteOffset":231824,"target":34962},{"buffer":0,"byteLength":2160,"byteOffset":236144,"target":34962},{"buffer":0,"byteLength":6336,"byteOffset":238304,"target":34963},{"buffer":0,"byteLength":6936,"byteOffset":244640,"target":34962},{"buffer":0,"byteLength":6936,"byteOffset":251576,"target":34962},{"buffer":0,"byteLength":9248,"byteOffset":258512,"target":34962},{"buffer":0,"byteLength":4624,"byteOffset":267760,"target":34962},{"buffer":0,"byteLength":3648,"byteOffset":272384,"target":34963},{"buffer":0,"byteLength":4212,"byteOffset":276032,"target":34962},{"buffer":0,"byteLength":4212,"byteOffset":280244,"target":34962},{"buffer":0,"byteLength":5616,"byteOffset":284456,"target":34962},{"buffer":0,"byteLength":2808,"byteOffset":290072,"target":34962},{"buffer":0,"byteLength":4608,"byteOffset":292880,"target":34963},{"buffer":0,"byteLength":5400,"byteOffset":297488,"target":34962},{"buffer":0,"byteLength":5400,"byteOffset":302888,"target":34962},{"buffer":0,"byteLength":7200,"byteOffset":308288,"target":34962},{"buffer":0,"byteLength":3600,"byteOffset":315488,"target":34962},{"buffer":0,"byteLength":3648,"byteOffset":319088,"target":34963},{"buffer":0,"byteLength":4212,"byteOffset":322736,"target":34962},{"buffer":0,"byteLength":4212,"byteOffset":326948,"target":34962},{"buffer":0,"byteLength":5616,"byteOffset":331160,"target":34962},{"buffer":0,"byteLength":2808,"byteOffset":336776,"target":34962}],"buffers":[{"byteLength":339584,"uri":"A10_BC_SH18_PL_T1_PL_48x6x20_MULTI.bin"}],"cameras":[{"extensions":{"S8S_v3d_camera":{"controls":"ORBIT","enablePan":true,"moveSpeed":1.0,"orbitMaxDistance":100.0,"orbitMaxPolarAngle":3.1415927410125732,"orbitMaxZoom":100.0,"orbitMinDistance":0.0,"orbitMinPolarAngle":0.0,"orbitMinZoom":0.009999999776482582,"orbitTarget":[0.0,0.0,-0.0],"rotateSpeed":1.0,"viewportFitInitialAspect":1.7777777777777777,"viewportFitType":"AUTO"}},"name":"Camera","perspective":{"aspectRatio":1.7777777777777777,"yfov":0.39959652046304894,"zfar":100.0,"znear":0.10000000149011612},"type":"perspective"}],"extensions":{"S8S_v3d_lights":{"lights":[{"color":[1.0,1.0,1.0],"decay":2,"distance":31.622776955095866,"intensity":1000.0,"name":"Light","profile":"blender","shadow":{"bias":-0.0018,"cameraFar":31.622776955095866,"cameraFov":0,"cameraNear":0.05000000074505806,"enabled":true,"expBias":2.5,"mapSize":512,"radius":1.0,"slopeScaledBias":2.5},"type":"point"},{"color":[1.0,1.0,1.0],"decay":2,"distance":31.622776955095866,"intensity":1000.0,"name":"Light.001","profile":"blender","shadow":{"bias":-0.0018,"cameraFar":31.622776955095866,"cameraFov":0,"cameraNear":0.05000000074505806,"enabled":true,"expBias":2.5,"mapSize":512,"radius":1.0,"slopeScaledBias":2.5},"type":"point"},{"color":[1.0,1.0,1.0],"decay":2,"distance":31.622776955095866,"intensity":1000.0,"name":"Light.002","profile":"blender","shadow":{"bias":-0.0018,"cameraFar":31.622776955095866,"cameraFov":0,"cameraNear":0.05000000074505806,"enabled":true,"expBias":2.5,"mapSize":512,"radius":1.0,"slopeScaledBias":2.5},"type":"point"}]}},"extensionsUsed":["S8S_v3d_materials","S8S_v3d_camera","S8S_v3d_lights","S8S_v3d_mesh","S8S_v3d_node","S8S_v3d_scene"],"materials":[{"extensions":{"S8S_v3d_materials":{"gtaoVisible":true,"materialIndex":0,"nodeGraph":{"edges":[{"fromNode":1,"fromOutput":0,"toInput":0,"toNode":0}],"nodes":[{"inputs":[[0,0,0,0],[0,0,0,0]],"is_active_output":true,"name":"World Output","outputs":[],"type":"OUTPUT_WORLD_BL"},{"inputs":[[0.05087608844041824,0.05087608844041824,0.05087608844041824,1.0],1.0],"is_active_output":false,"name":"Background","outputs":[[0,0,0,0]],"type":"BACKGROUND_BL"}]},"useCastShadows":true}},"name":"Verge3D_Environment_World"},{"extensions":{"S8S_v3d_materials":{"nodeGraph":{"edges":[{"fromNode":1,"fromOutput":0,"toInput":0,"toNode":0}],"nodes":[{"inputs":[[0,0,0,0],[0,0,0,0],[0,0,0]],"is_active_output":true,"name":"Material Output","outputs":[],"type":"OUTPUT_MATERIAL_BL"},{"inputs":[[0.800000011920929,0.800000011920929,0.800000011920929,1.0],0.0,[0.0,0.0,0.0]],"is_active_output":false,"name":"Diffuse BSDF","outputs":[[0,0,0,0]],"type":"BSDF_DIFFUSE_BL"}]},"useCastShadows":true,"useShadows":true}},"name":"v3d_default_material"}],"meshes":[{"extensions":{"S8S_v3d_mesh":{"colorLayers":{},"uvLayers":{}}},"name":"Cube.002","primitives":[{"attributes":{"NORMAL":2,"POSITION":1,"TANGENT":3,"TEXCOORD_0":4},"indices":0,"material":1,"mode":4}]},{"extensions":{"S8S_v3d_mesh":{"colorLayers":{},"uvLayers":{}}},"name":"Cube.004","primitives":[{"attributes":{"NORMAL":7,"POSITION":6,"TANGENT":8,"TEXCOORD_0":9},"indices":5,"material":1,"mode":4}]},{"extensions":{"S8S_v3d_mesh":{"colorLayers":{},"uvLayers":{}}},"name":"Cube.007","primitives":[{"attributes":{"NORMAL":12,"POSITION":11,"TANGENT":13,"TEXCOORD_0":14,"TEXCOORD_1":15,"TEXCOORD_2":16,"TEXCOORD_3":17,"TEXCOORD_4":18,"TEXCOORD_5":19},"indices":10,"material":1,"mode":4},{"attributes":{"NORMAL":22,"POSITION":21,"TANGENT":23,"TEXCOORD_0":24,"TEXCOORD_1":25,"TEXCOORD_2":26,"TEXCOORD_3":27,"TEXCOORD_4":28,"TEXCOORD_5":29},"indices":20,"material":1,"mode":4},{"attributes":{"NORMAL":32,"POSITION":31,"TANGENT":33,"TEXCOORD_0":34,"TEXCOORD_1":35,"TEXCOORD_2":36,"TEXCOORD_3":37,"TEXCOORD_4":38,"TEXCOORD_5":39},"indices":30,"material":1,"mode":4}]},{"extensions":{"S8S_v3d_mesh":{"colorLayers":{},"uvLayers":{}}},"name":"Cube.010","primitives":[{"attributes":{"NORMAL":42,"POSITION":41,"TANGENT":43,"TEXCOORD_0":44},"indices":40,"material":1,"mode":4}]},{"extensions":{"S8S_v3d_mesh":{"colorLayers":{},"uvLayers":{}}},"name":"Cube.025","primitives":[{"attributes":{"NORMAL":47,"POSITION":46,"TANGENT":48,"TEXCOORD_0":49},"indices":45,"material":1,"mode":4}]},{"extensions":{"S8S_v3d_mesh":{"colorLayers":{},"uvLayers":{}}},"name":"Pipe.002","primitives":[{"attributes":{"NORMAL":52,"POSITION":51,"TANGENT":53,"TEXCOORD_0":54},"indices":50,"material":1,"mode":4}]},{"extensions":{"S8S_v3d_mesh":{"colorLayers":{},"uvLayers":{}}},"name":"Pipe.003","primitives":[{"attributes":{"NORMAL":57,"POSITION":56,"TANGENT":58,"TEXCOORD_0":59},"indices":55,"material":1,"mode":4}]},{"extensions":{"S8S_v3d_mesh":{"colorLayers":{},"uvLayers":{}}},"name":"Pipe.004","primitives":[{"attributes":{"NORMAL":62,"POSITION":61,"TANGENT":63,"TEXCOORD_0":64},"indices":60,"material":1,"mode":4}]}],"nodes":[{"extensions":{"S8S_v3d_node":{"frustumCulling":true,"groupNames":["A10_BC_SH18_PL_T1_PL_48x6x20_MULTI"],"hidden":false,"hidpiCompositing":false,"objectColor":[1.0,1.0,1.0,1.0],"objectIndex":0,"renderOrder":0,"useShadows":true}},"mesh":1,"name":"A10_BC_SH18_PL_T1_PL_48x6x20_MULTI_STT1_1","translation":[4.090739821549505e-05,0.5854463577270508,-0.3044385612010956]},{"extensions":{"S8S_v3d_node":{"frustumCulling":true,"groupNames":["A10_BC_SH18_PL_T1_PL_48x6x20_MULTI"],"hidden":false,"hidpiCompositing":false,"objectColor":[1.0,1.0,1.0,1.0],"objectIndex":0,"renderOrder":0,"useShadows":true}},"mesh":3,"name":"A10_BC_SH18_PL_T1_PL_48x6x20_MULTI_STT1_2","translation":[2.312461583642289e-05,0.5769231915473938,-0.2137773036956787]},{"extensions":{"S8S_v3d_node":{"frustumCulling":true,"groupNames":["A10_BC_SH18_PL_T1_PL_48x6x20_MULTI"],"hidden":false,"hidpiCompositing":false,"objectColor":[1.0,1.0,1.0,1.0],"objectIndex":0,"renderOrder":0,"useShadows":true}},"mesh":4,"name":"A10_BC_SH18_PL_T1_PL_48x6x20_MULTI_BP1","translation":[-2.249231911832794e-09,0.5762525200843811,-0.30800291895866394]},{"extensions":{"S8S_v3d_node":{"frustumCulling":true,"groupNames":["A10_BC_SH18_PL_T1_PL_48x6x20_MULTI"],"hidden":false,"hidpiCompositing":false,"objectColor":[1.0,1.0,1.0,1.0],"objectIndex":0,"renderOrder":0,"useShadows":true}},"mesh":0,"name":"A10_BC_SH18_PL_T1_PL_48x6x20_MULTI_STT2_1","translation":[4.090739821549505e-05,0.5854463577270508,-0.3044385612010956]},{"extensions":{"S8S_v3d_node":{"frustumCulling":true,"groupNames":["A10_BC_SH18_PL_T1_PL_48x6x20_MULTI"],"hidden":false,"hidpiCompositing":false,"objectColor":[1.0,1.0,1.0,1.0],"objectIndex":0,"renderOrder":0,"useShadows":true}},"mesh":5,"name":"A10_BC_SH18_PL_T1_PL_48x6x20_MULTI_WLTB1_1","translation":[6.315494101727381e-05,0.6196386218070984,-0.30468881130218506]},{"extensions":{"S8S_v3d_node":{"frustumCulling":true,"groupNames":["A10_BC_SH18_PL_T1_PL_48x6x20_MULTI"],"hidden":false,"hidpiCompositing":false,"objectColor":[1.0,1.0,1.0,1.0],"objectIndex":0,"renderOrder":0,"useShadows":true}},"mesh":7,"name":"A10_BC_SH18_PL_T1_PL_48x6x20_MULTI_WLTB2_1","translation":[6.315494101727381e-05,0.6196386218070984,-0.30468881130218506]},{"extensions":{"S8S_v3d_node":{"frustumCulling":true,"groupNames":["A10_BC_SH18_PL_T1_PL_48x6x20_MULTI"],"hidden":false,"hidpiCompositing":false,"objectColor":[1.0,1.0,1.0,1.0],"objectIndex":0,"renderOrder":0,"useShadows":true}},"mesh":6,"name":"A10_BC_SH18_PL_T1_PL_48x6x20_MULTI_WLTS1_2","translation":[-1.0013580009626821e-07,0.6012340188026428,-0.21932198107242584]},{"extensions":{"S8S_v3d_node":{"frustumCulling":true,"groupNames":["A10_BC_SH18_PL_T1_PL_48x6x20_MULTI"],"hidden":false,"hidpiCompositing":false,"objectColor":[1.0,1.0,1.0,1.0],"objectIndex":0,"renderOrder":0,"useShadows":true}},"mesh":2,"name":"A10_BC_SH18_PL_T1_PL_48x6x20_MULTI","translation":[-8.411782800976653e-06,0.5272935032844543,-0.24928435683250427]}],"scene":0,"scenes":[{"extensions":{"S8S_v3d_scene":{"aaMethod":"AUTO","iblEnvironmentMode":"PMREM","physicallyCorrectLights":true,"pmremMaxTileSize":512,"postprocessing":[{"edgeGlow":0.0,"edgeStrength":3.0,"edgeThickness":1.0,"hiddenEdgeColor":[0.10000000149011612,0.10000000149011612,0.10000000149011612,1.0],"pulsePeriod":0.0,"renderHiddenEdge":true,"type":"outline","visibleEdgeColor":[1.0,1.0,1.0,1.0]}],"shadowMap":{"esmDistanceScale":1.0,"renderReverseSided":false,"renderSingleSided":true,"type":"PCFPOISSON"},"toneMapping":{"type":"filmicBlender"},"worldMaterial":0}},"extras":{"animFrameRate":24,"coordSystem":"Z_UP_RIGHT"},"name":"Scene","nodes":[7,0,1,4,5,6,3,2]}]}
