{"accessors":[{"bufferView":0,"componentType":5121,"count":288,"max":[191],"min":[0],"type":"SCALAR"},{"bufferView":1,"componentType":5126,"count":192,"max":[0.6092712879180908,0.2539999783039093,0.3555999994277954],"min":[-0.6092712879180908,0.0,-0.30479997396469116],"type":"VEC3"},{"bufferView":2,"componentType":5126,"count":192,"max":[0.4180586636066437,1.0,1.0],"min":[-0.4180717170238495,-0.9999999403953552,-1.0],"type":"VEC3"},{"bufferView":3,"componentType":5126,"count":192,"max":[1.0,0.3826785385608673,0.4179443120956421,1.0],"min":[-1.0,-0.38266634941101074,-0.41658011078834534,1.0],"type":"VEC4"},{"bufferView":4,"componentType":5126,"count":192,"max":[0.613261342048645,0.99609375],"min":[0.00390625,0.06673300266265869],"type":"VEC2"},{"bufferView":5,"componentType":5126,"count":192,"max":[0.0,0.0,0.0],"min":[0.0,0.0,-0.025400012731552124],"type":"VEC3"},{"bufferView":6,"componentType":5126,"count":192,"max":[2.8580427169799805e-05,3.30507755279541e-05,1.2069940567016602e-05],"min":[-2.849102020263672e-05,-3.3020973205566406e-05,-1.2874603271484375e-05],"type":"VEC3"},{"bufferView":7,"componentType":5126,"count":192,"max":[1.0,0.9484699964523315,1.0000001192092896],"min":[-1.0,-0.791429877281189,-0.9106295108795166],"type":"VEC3"},{"bufferView":8,"componentType":5126,"count":192,"max":[0.0,0.0,0.0],"min":[0.0,0.0,-0.025400012731552124],"type":"VEC3"},{"bufferView":9,"componentType":5126,"count":192,"max":[0.1057317703962326,4.887580871582031e-06,1.2069940567016602e-05],"min":[-0.1057317703962326,-0.2029680609703064,-0.25989317893981934],"type":"VEC3"},{"bufferView":10,"componentType":5126,"count":192,"max":[1.0,0.9484699964523315,0.9117235541343689],"min":[-1.0,-0.7071144580841064,-0.9088524580001831],"type":"VEC3"},{"bufferView":11,"componentType":5126,"count":192,"max":[0.0,0.0,0.025399982929229736],"min":[0.0,0.0,0.0],"type":"VEC3"},{"bufferView":12,"componentType":5126,"count":192,"max":[2.9802322387695312e-08,5.960464477539063e-08,0.0],"min":[-5.960464477539063e-08,-5.960464477539063e-08,-7.532552359634792e-10],"type":"VEC3"},{"bufferView":13,"componentType":5126,"count":192,"max":[1.0,0.9484699964523315,1.0000001192092896],"min":[-1.0,-0.7071144580841064,-0.41658011078834534],"type":"VEC3"},{"bufferView":14,"componentType":5126,"count":192,"max":[0.0,0.0,0.0],"min":[-0.025399982929229736,0.0,0.0],"type":"VEC3"},{"bufferView":15,"componentType":5126,"count":192,"max":[1.5279556464520283e-07,1.1920928955078125e-07,5.960464477539063e-08],"min":[-1.5279556464520283e-07,-1.1920928955078125e-07,-5.960464477539063e-08],"type":"VEC3"},{"bufferView":16,"componentType":5126,"count":192,"max":[1.0,0.39812102913856506,0.8319441080093384],"min":[-1.0,-0.39812108874320984,-0.8319438099861145],"type":"VEC3"},{"bufferView":17,"componentType":5126,"count":192,"max":[0.025399982929229736,0.0,0.0],"min":[0.0,0.0,0.0],"type":"VEC3"},{"bufferView":18,"componentType":5126,"count":192,"max":[1.5279556464520283e-07,1.1920928955078125e-07,5.960464477539063e-08],"min":[-1.5279556464520283e-07,-1.1920928955078125e-07,-5.960464477539063e-08],"type":"VEC3"},{"bufferView":19,"componentType":5126,"count":192,"max":[1.0,0.39812102913856506,0.8319441080093384],"min":[-1.0,-0.39812108874320984,-0.8319438099861145],"type":"VEC3"},{"bufferView":20,"componentType":5126,"count":192,"max":[0.0,0.0,0.0],"min":[0.0,-0.02539999783039093,0.0],"type":"VEC3"},{"bufferView":21,"componentType":5126,"count":192,"max":[5.960464477539063e-08,1.4233415640774183e-05,5.960464477539063e-08],"min":[-2.9802322387695312e-08,-0.000169911771081388,-5.960464477539063e-08],"type":"VEC3"},{"bufferView":22,"componentType":5126,"count":192,"max":[1.0,1.0000001192092896,0.6181966066360474],"min":[-1.0,-1.0000001192092896,-0.618144154548645],"type":"VEC3"},{"bufferView":23,"componentType":5126,"count":192,"max":[0.0,0.0,0.0],"min":[0.0,-0.02539999783039093,0.0],"type":"VEC3"},{"bufferView":24,"componentType":5126,"count":192,"max":[0.07006457448005676,0.2598932683467865,0.18732047080993652],"min":[-0.07006457448005676,-5.74849036638625e-06,-5.960464477539063e-08],"type":"VEC3"},{"bufferView":25,"componentType":5126,"count":192,"max":[1.0,0.6049095988273621,0.7072340846061707],"min":[-1.0,-0.604793906211853,-0.7072341442108154],"type":"VEC3"},{"bufferView":26,"componentType":5121,"count":180,"max":[119],"min":[0],"type":"SCALAR"},{"bufferView":27,"componentType":5126,"count":120,"max":[0.6096000075340271,0.25367119908332825,0.3552457392215729],"min":[-0.6096000075340271,0.0003287792205810547,-0.3044712543487549],"type":"VEC3"},{"bufferView":28,"componentType":5126,"count":120,"max":[1.0,0.38264894485473633,0.36078211665153503],"min":[-1.0,-0.3826785981655121,-0.38262444734573364],"type":"VEC3"},{"bufferView":29,"componentType":5126,"count":120,"max":[0.36075031757354736,0.030604468658566475,0.9999999403953552,1.0],"min":[-0.38262462615966797,-0.03089194744825363,-0.9999999403953552,1.0],"type":"VEC4"},{"bufferView":30,"componentType":5126,"count":120,"max":[0.9510803818702698,0.99609375],"min":[0.62109375,0.7344817817211151],"type":"VEC2"},{"bufferView":31,"componentType":5126,"count":120,"max":[0.0,0.0,0.0],"min":[0.0,0.0,-0.025400012731552124],"type":"VEC3"},{"bufferView":32,"componentType":5126,"count":120,"max":[2.086162567138672e-06,5.990266799926758e-06,5.4836273193359375e-06],"min":[-2.205371856689453e-06,-5.9604644775390625e-06,-5.513429641723633e-06],"type":"VEC3"},{"bufferView":33,"componentType":5126,"count":120,"max":[0.9379526972770691,0.668334424495697,0.9999999403953552],"min":[-0.38262462615966797,-0.10702300816774368,-0.9999999403953552],"type":"VEC3"},{"bufferView":34,"componentType":5126,"count":120,"max":[0.0,0.0,0.0],"min":[0.0,0.0,-0.025400012731552124],"type":"VEC3"},{"bufferView":35,"componentType":5126,"count":120,"max":[0.11944854259490967,5.990266799926758e-06,5.453824996948242e-06],"min":[-0.11944854259490967,-0.24482864141464233,-0.04562866687774658],"type":"VEC3"},{"bufferView":36,"componentType":5126,"count":120,"max":[0.9379526972770691,0.668334424495697,0.9999999403953552],"min":[-0.38262462615966797,-0.10702300816774368,-0.9999999403953552],"type":"VEC3"},{"bufferView":37,"componentType":5126,"count":120,"max":[0.0,0.0,0.025399982929229736],"min":[0.0,0.0,0.0],"type":"VEC3"},{"bufferView":38,"componentType":5126,"count":120,"max":[0.0,5.960464477539063e-08,0.0],"min":[0.0,0.0,-1.8206236518381047e-09],"type":"VEC3"},{"bufferView":39,"componentType":5126,"count":120,"max":[0.36075031757354736,0.030604468658566475,0.9999999403953552],"min":[-0.38262462615966797,-0.10702300816774368,-0.9999999403953552],"type":"VEC3"},{"bufferView":40,"componentType":5126,"count":120,"max":[0.0,0.0,0.0],"min":[-0.025399982929229736,0.0,0.0],"type":"VEC3"},{"bufferView":41,"componentType":5126,"count":120,"max":[0.0,0.0,0.0],"min":[0.0,0.0,0.0],"type":"VEC3"},{"bufferView":42,"componentType":5126,"count":120,"max":[0.36075031757354736,0.030604468658566475,0.9999999403953552],"min":[-0.38262462615966797,-0.03089194744825363,-0.9999999403953552],"type":"VEC3"},{"bufferView":43,"componentType":5126,"count":120,"max":[0.025399982929229736,0.0,0.0],"min":[0.0,0.0,0.0],"type":"VEC3"},{"bufferView":44,"componentType":5126,"count":120,"max":[0.0,0.0,0.0],"min":[0.0,0.0,0.0],"type":"VEC3"},{"bufferView":45,"componentType":5126,"count":120,"max":[0.36075031757354736,0.030604468658566475,0.9999999403953552],"min":[-0.38262462615966797,-0.03089194744825363,-0.9999999403953552],"type":"VEC3"},{"bufferView":46,"componentType":5126,"count":120,"max":[0.0,0.0,0.0],"min":[0.0,-0.02539999783039093,0.0],"type":"VEC3"},{"bufferView":47,"componentType":5126,"count":120,"max":[5.960464477539063e-08,6.660342933173524e-06,2.9802322387695312e-08],"min":[-5.960464477539063e-08,-5.366368714021519e-05,-2.9802322387695312e-08],"type":"VEC3"},{"bufferView":48,"componentType":5126,"count":120,"max":[0.5035831332206726,1.0,0.9999999403953552],"min":[-0.38262462615966797,-1.0,-0.9999999403953552],"type":"VEC3"},{"bufferView":49,"componentType":5126,"count":120,"max":[0.0,0.0,0.0],"min":[0.0,-0.02539999783039093,0.0],"type":"VEC3"},{"bufferView":50,"componentType":5126,"count":120,"max":[0.039815545082092285,0.16043822467327118,0.015209287405014038],"min":[-0.039815545082092285,-1.8326918507227674e-06,-2.9802322387695312e-08],"type":"VEC3"},{"bufferView":51,"componentType":5126,"count":120,"max":[0.707219660282135,1.0,0.9999999403953552],"min":[-0.38259366154670715,-1.0,-0.9999999403953552],"type":"VEC3"}],"asset":{"generator":"Soft8Soft Verge3D for Blender add-on","version":"2.0"},"bufferViews":[{"buffer":0,"byteLength":288,"byteOffset":0,"target":34963},{"buffer":0,"byteLength":2304,"byteOffset":288,"target":34962},{"buffer":0,"byteLength":2304,"byteOffset":2592,"target":34962},{"buffer":0,"byteLength":3072,"byteOffset":4896,"target":34962},{"buffer":0,"byteLength":1536,"byteOffset":7968,"target":34962},{"buffer":0,"byteLength":2304,"byteOffset":9504},{"buffer":0,"byteLength":2304,"byteOffset":11808},{"buffer":0,"byteLength":2304,"byteOffset":14112},{"buffer":0,"byteLength":2304,"byteOffset":16416},{"buffer":0,"byteLength":2304,"byteOffset":18720},{"buffer":0,"byteLength":2304,"byteOffset":21024},{"buffer":0,"byteLength":2304,"byteOffset":23328},{"buffer":0,"byteLength":2304,"byteOffset":25632},{"buffer":0,"byteLength":2304,"byteOffset":27936},{"buffer":0,"byteLength":2304,"byteOffset":30240},{"buffer":0,"byteLength":2304,"byteOffset":32544},{"buffer":0,"byteLength":2304,"byteOffset":34848},{"buffer":0,"byteLength":2304,"byteOffset":37152},{"buffer":0,"byteLength":2304,"byteOffset":39456},{"buffer":0,"byteLength":2304,"byteOffset":41760},{"buffer":0,"byteLength":2304,"byteOffset":44064},{"buffer":0,"byteLength":2304,"byteOffset":46368},{"buffer":0,"byteLength":2304,"byteOffset":48672},{"buffer":0,"byteLength":2304,"byteOffset":50976},{"buffer":0,"byteLength":2304,"byteOffset":53280},{"buffer":0,"byteLength":2304,"byteOffset":55584},{"buffer":0,"byteLength":180,"byteOffset":57888,"target":34963},{"buffer":0,"byteLength":1440,"byteOffset":58068,"target":34962},{"buffer":0,"byteLength":1440,"byteOffset":59508,"target":34962},{"buffer":0,"byteLength":1920,"byteOffset":60948,"target":34962},{"buffer":0,"byteLength":960,"byteOffset":62868,"target":34962},{"buffer":0,"byteLength":1440,"byteOffset":63828},{"buffer":0,"byteLength":1440,"byteOffset":65268},{"buffer":0,"byteLength":1440,"byteOffset":66708},{"buffer":0,"byteLength":1440,"byteOffset":68148},{"buffer":0,"byteLength":1440,"byteOffset":69588},{"buffer":0,"byteLength":1440,"byteOffset":71028},{"buffer":0,"byteLength":1440,"byteOffset":72468},{"buffer":0,"byteLength":1440,"byteOffset":73908},{"buffer":0,"byteLength":1440,"byteOffset":75348},{"buffer":0,"byteLength":1440,"byteOffset":76788},{"buffer":0,"byteLength":1440,"byteOffset":78228},{"buffer":0,"byteLength":1440,"byteOffset":79668},{"buffer":0,"byteLength":1440,"byteOffset":81108},{"buffer":0,"byteLength":1440,"byteOffset":82548},{"buffer":0,"byteLength":1440,"byteOffset":83988},{"buffer":0,"byteLength":1440,"byteOffset":85428},{"buffer":0,"byteLength":1440,"byteOffset":86868},{"buffer":0,"byteLength":1440,"byteOffset":88308},{"buffer":0,"byteLength":1440,"byteOffset":89748},{"buffer":0,"byteLength":1440,"byteOffset":91188},{"buffer":0,"byteLength":1440,"byteOffset":92628}],"buffers":[{"byteLength":94068,"uri":"A10_BS_T7_48x26x10.bin"}],"cameras":[{"extensions":{"S8S_v3d_camera":{"controls":"ORBIT","enablePan":true,"moveSpeed":1,"orbitMaxDistance":10000,"orbitMaxPolarAngle":3.141592653589793,"orbitMinDistance":0,"orbitMinPolarAngle":0,"orbitTarget":[0.18835338950157166,0.35262036323547363,-0.0847042053937912],"rotateSpeed":1,"viewportFitInitialAspect":1,"viewportFitType":"VERTICAL"}},"name":"__DEFAULT__","perspective":{"aspectRatio":1,"yfov":0.7853981633974483,"zfar":1000.0005493164062,"znear":5.080000119050965e-05},"type":"perspective"}],"extensionsUsed":["S8S_v3d_materials","S8S_v3d_camera","S8S_v3d_mesh","S8S_v3d_node","S8S_v3d_scene"],"materials":[{"extensions":{"S8S_v3d_materials":{"gtaoVisible":true,"materialIndex":0,"nodeGraph":{"edges":[{"fromNode":1,"fromOutput":0,"toInput":0,"toNode":0}],"nodes":[{"inputs":[[0,0,0,0],[0,0,0,0]],"is_active_output":true,"name":"World Output","outputs":[],"type":"OUTPUT_WORLD_BL"},{"inputs":[[0.05087608844041824,0.05087608844041824,0.05087608844041824,1.0],1.0],"is_active_output":false,"name":"Background","outputs":[[0,0,0,0]],"type":"BACKGROUND_BL"}]},"useCastShadows":true}},"name":"Verge3D_Environment_World.015"},{"extensions":{"S8S_v3d_materials":{"nodeGraph":{"edges":[{"fromNode":1,"fromOutput":0,"toInput":0,"toNode":0}],"nodes":[{"inputs":[[0,0,0,0],[0,0,0,0],[0,0,0]],"is_active_output":true,"name":"Material Output","outputs":[],"type":"OUTPUT_MATERIAL_BL"},{"inputs":[[0.800000011920929,0.800000011920929,0.800000011920929,1.0],0.0,[0.0,0.0,0.0]],"is_active_output":false,"name":"Diffuse BSDF","outputs":[[0,0,0,0]],"type":"BSDF_DIFFUSE_BL"}]},"useCastShadows":true,"useShadows":true}},"name":"v3d_default_material"}],"meshes":[{"extensions":{"S8S_v3d_mesh":{"colorLayers":{},"uvLayers":{}}},"extras":{"targetNames":["Y1","Y1A","Y0","X1R","X1L","Z1","Z11"]},"name":"Cube.009","primitives":[{"attributes":{"NORMAL":2,"POSITION":1,"TANGENT":3,"TEXCOORD_0":4},"indices":0,"material":1,"mode":4,"targets":[{"NORMAL":6,"POSITION":5,"TANGENT":7},{"NORMAL":9,"POSITION":8,"TANGENT":10},{"NORMAL":12,"POSITION":11,"TANGENT":13},{"NORMAL":15,"POSITION":14,"TANGENT":16},{"NORMAL":18,"POSITION":17,"TANGENT":19},{"NORMAL":21,"POSITION":20,"TANGENT":22},{"NORMAL":24,"POSITION":23,"TANGENT":25}]},{"attributes":{"NORMAL":28,"POSITION":27,"TANGENT":29,"TEXCOORD_0":30},"indices":26,"material":1,"mode":4,"targets":[{"NORMAL":32,"POSITION":31,"TANGENT":33},{"NORMAL":35,"POSITION":34,"TANGENT":36},{"NORMAL":38,"POSITION":37,"TANGENT":39},{"NORMAL":41,"POSITION":40,"TANGENT":42},{"NORMAL":44,"POSITION":43,"TANGENT":45},{"NORMAL":47,"POSITION":46,"TANGENT":48},{"NORMAL":50,"POSITION":49,"TANGENT":51}]}],"weights":[0.0,0.0,0.0,0.0,0.0,0.0,0.0]}],"nodes":[{"extensions":{"S8S_v3d_node":{"frustumCulling":true,"groupNames":["A10_BS_T7_48x26x10"],"hidden":false,"hidpiCompositing":false,"objectColor":[1.0,1.0,1.0,1.0],"objectIndex":0,"renderOrder":0}},"name":"A10_BS_T7_48x26x10_HL","scale":[0.04141000285744667,0.04141000285744667,0.04141000285744667],"translation":[0.0,0.0,-0.30480000376701355]},{"extensions":{"S8S_v3d_node":{"frustumCulling":true,"groupNames":["A10_BS_T7_48x26x10"],"hidden":false,"hidpiCompositing":false,"objectColor":[1.0,1.0,1.0,1.0],"objectIndex":0,"renderOrder":0,"useShadows":true}},"mesh":0,"name":"A10_BS_T7_48x26x10"},{"extensions":{"S8S_v3d_node":{"frustumCulling":true,"groupNames":["A10_BS_T7_48x26x10"],"hidden":false,"hidpiCompositing":false,"objectColor":[1.0,1.0,1.0,1.0],"objectIndex":0,"renderOrder":0}},"name":"A10_BS_T7_48x26x10_HWY1","scale":[0.13217365741729736,0.13217365741729736,0.13217365741729736],"translation":[0.0,0.0,0.3302000164985657]},{"camera":0,"name":"__DEFAULT_CAMERA__","rotation":[-0.03641007840633392,0.49350881576538086,0.02068454585969448,0.8687321543693542],"scale":[1.0,0.9999999403953552,0.9999999403953552],"translation":[1.6137155294418335,0.4919635057449341,0.7649813890457153]}],"scene":2,"scenes":[{"extensions":{"S8S_v3d_scene":{"aaMethod":"AUTO","iblEnvironmentMode":"PMREM","physicallyCorrectLights":true,"pmremMaxTileSize":512,"shadowMap":{"esmDistanceScale":1.0,"renderReverseSided":false,"renderSingleSided":true,"type":"PCFPOISSON"},"toneMapping":{"type":"filmicBlender"}}},"extras":{"animFrameRate":25,"coordSystem":"Z_UP_RIGHT","customProps":{"export_ExportOnlySelected":0,"static_collection_export":0,"unreal_import_location":"BlenderAsset/A10"}},"name":"Scene","nodes":[3]},{"extensions":{"S8S_v3d_scene":{"aaMethod":"AUTO","iblEnvironmentMode":"PMREM","physicallyCorrectLights":true,"pmremMaxTileSize":512,"shadowMap":{"esmDistanceScale":1.0,"renderReverseSided":false,"renderSingleSided":true,"type":"PCFPOISSON"},"toneMapping":{"type":"filmicBlender"}}},"extras":{"animFrameRate":25,"coordSystem":"Z_UP_RIGHT","customProps":{"export_ExportOnlySelected":0,"static_collection_export":0,"unreal_import_location":"BlenderAsset/A10"}},"name":"ue4-export_Temp.001","nodes":[3]},{"extensions":{"S8S_v3d_scene":{"aaMethod":"AUTO","iblEnvironmentMode":"PMREM","physicallyCorrectLights":true,"pmremMaxTileSize":512,"postprocessing":[{"edgeGlow":0.0,"edgeStrength":3.0,"edgeThickness":1.0,"hiddenEdgeColor":[0.10000000149011612,0.10000000149011612,0.10000000149011612,1.0],"pulsePeriod":0.0,"renderHiddenEdge":true,"type":"outline","visibleEdgeColor":[1.0,1.0,1.0,1.0]}],"shadowMap":{"esmDistanceScale":1.0,"renderReverseSided":false,"renderSingleSided":true,"type":"PCFPOISSON"},"toneMapping":{"type":"filmicBlender"}}},"extras":{"animFrameRate":30,"coordSystem":"Z_UP_RIGHT","customProps":{"export_ExportOnlySelected":1,"static_collection_export":0,"unreal_import_location":"BlenderAsset/A10"}},"name":"ue4-export_Temp.002","nodes":[1,0,2,3]}]}
