{"accessors":[{"bufferView":0,"componentType":5123,"count":27468,"max":[5464],"min":[0],"type":"SCALAR"},{"bufferView":1,"componentType":5126,"count":5465,"max":[0.6103625893592834,0.0982888787984848,0.26956477761268616],"min":[-0.610556423664093,-0.12060330808162689,-0.250683456659317],"type":"VEC3"},{"bufferView":2,"componentType":5126,"count":5465,"max":[0.9443992376327515,1.0,0.9999998807907104],"min":[-0.9490602612495422,-1.0,-1.0],"type":"VEC3"},{"bufferView":3,"componentType":5126,"count":5465,"max":[1.0,0.9373635053634644,0.9168139696121216,1.0],"min":[-1.0,-0.9237552881240845,-0.9122282862663269,1.0],"type":"VEC4"},{"bufferView":4,"componentType":5126,"count":5465,"max":[2.6047322750091553,2.789586305618286],"min":[-1.5564281940460205,-1.9933719635009766],"type":"VEC2"},{"bufferView":5,"componentType":5126,"count":5465,"max":[2.980865955352783,0.9971292018890381],"min":[-1.9808659553527832,0.5014382004737854],"type":"VEC2"},{"bufferView":6,"componentType":5126,"count":5465,"max":[0.04021883383393288,0.9966897964477539],"min":[0.0240897536277771,0.9805607795715332],"type":"VEC2"},{"bufferView":7,"componentType":5126,"count":5465,"max":[0.023972395807504654,0.9898297786712646],"min":[0.007843315601348877,0.9737007021903992],"type":"VEC2"},{"bufferView":8,"componentType":5126,"count":5465,"max":[0.02274201810359955,0.9981381297111511],"min":[0.006612937431782484,0.9820091128349304],"type":"VEC2"},{"bufferView":9,"componentType":5123,"count":2808,"max":[725],"min":[0],"type":"SCALAR"},{"bufferView":10,"componentType":5126,"count":726,"max":[0.6179583072662354,0.08396527171134949,0.261991024017334],"min":[-0.6181522607803345,-0.01899375207722187,-0.24754300713539124],"type":"VEC3"},{"bufferView":11,"componentType":5126,"count":726,"max":[0.9999997615814209,0.6671386957168579,0.7091823816299438],"min":[-0.9999997615814209,-0.9552245140075684,-0.7881818413734436],"type":"VEC3"},{"bufferView":12,"componentType":5126,"count":726,"max":[0.7081066966056824,0.3105964660644531,0.9999601244926453,1.0],"min":[-0.7881736159324646,-0.20868989825248718,-0.9999993443489075,1.0],"type":"VEC4"},{"bufferView":13,"componentType":5126,"count":726,"max":[0.9139342308044434,-0.8294516801834106],"min":[-0.13482677936553955,-1.30198335647583],"type":"VEC2"},{"bufferView":14,"componentType":5126,"count":726,"max":[2.980865955352783,0.9973281025886536],"min":[-1.9808659553527832,0.4645950198173523],"type":"VEC2"},{"bufferView":15,"componentType":5126,"count":726,"max":[0.04590361565351486,0.9966897964477539],"min":[0.0240897536277771,0.9805607795715332],"type":"VEC2"},{"bufferView":16,"componentType":5126,"count":726,"max":[0.03211795911192894,0.9899777173995972],"min":[0.007843315601348877,0.9737007021903992],"type":"VEC2"},{"bufferView":17,"componentType":5126,"count":726,"max":[0.028422942385077477,0.9981381297111511],"min":[0.006612937431782484,0.9820091128349304],"type":"VEC2"},{"bufferView":18,"componentType":5123,"count":11232,"max":[2241],"min":[0],"type":"SCALAR"},{"bufferView":19,"componentType":5126,"count":2242,"max":[0.6174127459526062,-0.015002353116869926,0.2724299430847168],"min":[-0.6169800758361816,-0.12046948075294495,-0.24833795428276062],"type":"VEC3"},{"bufferView":20,"componentType":5126,"count":2242,"max":[0.9999991059303284,0.9794994592666626,0.999997615814209],"min":[-0.9999991059303284,-0.9986243844032288,-1.0],"type":"VEC3"},{"bufferView":21,"componentType":5126,"count":2242,"max":[1.0,0.36530646681785583,1.0,1.0],"min":[-1.0,-0.3843051493167877,-0.9999930262565613,1.0],"type":"VEC4"},{"bufferView":22,"componentType":5126,"count":2242,"max":[1.963433027267456,-0.306520938873291],"min":[-1.3533415794372559,-1.0629916191101074],"type":"VEC2"},{"bufferView":23,"componentType":5126,"count":2242,"max":[0.9143925309181213,0.9969303011894226],"min":[0.006105487234890461,0.46669429540634155],"type":"VEC2"},{"bufferView":24,"componentType":5126,"count":2242,"max":[0.9118836522102356,0.9805607795715332],"min":[0.024089764803647995,0.4666024446487427],"type":"VEC2"},{"bufferView":25,"componentType":5126,"count":2242,"max":[0.9106506109237671,0.9737007021903992],"min":[0.007843326777219772,0.46670234203338623],"type":"VEC2"},{"bufferView":26,"componentType":5126,"count":2242,"max":[0.006612998433411121,0.9820091128349304],"min":[0.00661295372992754,0.9820091128349304],"type":"VEC2"},{"bufferView":27,"componentType":5123,"count":2784,"max":[539],"min":[0],"type":"SCALAR"},{"bufferView":28,"componentType":5126,"count":540,"max":[0.6118427515029907,0.039835184812545776,0.28267815709114075],"min":[-0.6118428707122803,-0.0683775246143341,-0.23192493617534637],"type":"VEC3"},{"bufferView":29,"componentType":5126,"count":540,"max":[0.9694920182228088,0.9890990257263184,0.9597620368003845],"min":[-0.9694923758506775,-0.984669029712677,-0.959026038646698],"type":"VEC3"},{"bufferView":30,"componentType":5126,"count":540,"max":[0.9530423283576965,0.9859514832496643,0.9945468902587891,1.0],"min":[-0.9896957278251648,-0.9821228981018066,-0.9975660443305969,1.0],"type":"VEC4"},{"bufferView":31,"componentType":5126,"count":540,"max":[0.2743079662322998,0.9960168600082397],"min":[0.003985419869422913,0.7337414026260376],"type":"VEC2"},{"bufferView":32,"componentType":5123,"count":1440,"max":[287],"min":[0],"type":"SCALAR"},{"bufferView":33,"componentType":5126,"count":288,"max":[0.6121810078620911,0.05004420876502991,0.0061904191970825195],"min":[-0.6121810078620911,-0.05578693747520447,-0.007487237453460693],"type":"VEC3"},{"bufferView":34,"componentType":5126,"count":288,"max":[0.9940057396888733,0.9014597535133362,0.9836867451667786],"min":[-0.9940059781074524,-0.9646987318992615,-0.9848068952560425],"type":"VEC3"},{"bufferView":35,"componentType":5126,"count":288,"max":[0.9750649929046631,0.9925224184989929,0.9943019151687622,1.0],"min":[-0.9992380142211914,-0.9944814443588257,-0.9863825440406799,1.0],"type":"VEC4"},{"bufferView":36,"componentType":5126,"count":288,"max":[0.04528200626373291,0.9958094358444214],"min":[0.004043173044919968,0.9101815223693848],"type":"VEC2"},{"bufferView":37,"componentType":5126,"count":14,"max":[33.29166793823242],"min":[5.354166507720947],"type":"SCALAR"},{"bufferView":38,"componentType":5126,"count":14,"max":[0.0,0.9995663166046143,-0.0,1.0],"min":[0.0,-8.742277657347586e-08,-0.0,-1.0],"type":"VEC4"}],"animations":[{"channels":[{"sampler":0,"target":{"node":4,"path":"rotation"}}],"extensions":{"S8S_v3d_animation":{"auto":true,"loop":"REPEAT","offset":0.0,"repeatCount":1.0,"repeatInfinite":true}},"name":"Sphere_Limit.001","samplers":[{"input":37,"interpolation":"LINEAR","output":38}]}],"asset":{"generator":"Verge3D for Blender","version":"2.0"},"bufferViews":[{"buffer":0,"byteLength":54936,"byteOffset":0,"target":34963},{"buffer":0,"byteLength":65580,"byteOffset":54936,"target":34962},{"buffer":0,"byteLength":65580,"byteOffset":120516,"target":34962},{"buffer":0,"byteLength":87440,"byteOffset":186096,"target":34962},{"buffer":0,"byteLength":43720,"byteOffset":273536,"target":34962},{"buffer":0,"byteLength":43720,"byteOffset":317256,"target":34962},{"buffer":0,"byteLength":43720,"byteOffset":360976,"target":34962},{"buffer":0,"byteLength":43720,"byteOffset":404696,"target":34962},{"buffer":0,"byteLength":43720,"byteOffset":448416,"target":34962},{"buffer":0,"byteLength":5616,"byteOffset":492136,"target":34963},{"buffer":0,"byteLength":8712,"byteOffset":497752,"target":34962},{"buffer":0,"byteLength":8712,"byteOffset":506464,"target":34962},{"buffer":0,"byteLength":11616,"byteOffset":515176,"target":34962},{"buffer":0,"byteLength":5808,"byteOffset":526792,"target":34962},{"buffer":0,"byteLength":5808,"byteOffset":532600,"target":34962},{"buffer":0,"byteLength":5808,"byteOffset":538408,"target":34962},{"buffer":0,"byteLength":5808,"byteOffset":544216,"target":34962},{"buffer":0,"byteLength":5808,"byteOffset":550024,"target":34962},{"buffer":0,"byteLength":22464,"byteOffset":555832,"target":34963},{"buffer":0,"byteLength":26904,"byteOffset":578296,"target":34962},{"buffer":0,"byteLength":26904,"byteOffset":605200,"target":34962},{"buffer":0,"byteLength":35872,"byteOffset":632104,"target":34962},{"buffer":0,"byteLength":17936,"byteOffset":667976,"target":34962},{"buffer":0,"byteLength":17936,"byteOffset":685912,"target":34962},{"buffer":0,"byteLength":17936,"byteOffset":703848,"target":34962},{"buffer":0,"byteLength":17936,"byteOffset":721784,"target":34962},{"buffer":0,"byteLength":17936,"byteOffset":739720,"target":34962},{"buffer":0,"byteLength":5568,"byteOffset":757656,"target":34963},{"buffer":0,"byteLength":6480,"byteOffset":763224,"target":34962},{"buffer":0,"byteLength":6480,"byteOffset":769704,"target":34962},{"buffer":0,"byteLength":8640,"byteOffset":776184,"target":34962},{"buffer":0,"byteLength":4320,"byteOffset":784824,"target":34962},{"buffer":0,"byteLength":2880,"byteOffset":789144,"target":34963},{"buffer":0,"byteLength":3456,"byteOffset":792024,"target":34962},{"buffer":0,"byteLength":3456,"byteOffset":795480,"target":34962},{"buffer":0,"byteLength":4608,"byteOffset":798936,"target":34962},{"buffer":0,"byteLength":2304,"byteOffset":803544,"target":34962},{"buffer":0,"byteLength":56,"byteOffset":805848},{"buffer":0,"byteLength":224,"byteOffset":805904}],"buffers":[{"byteLength":806128,"uri":"B10_SC_SH18_VCT6_T2_SM_48x20x8_MULTI.bin"}],"cameras":[{"extensions":{"S8S_v3d_camera":{"controls":"ORBIT","enablePan":true,"moveSpeed":1.0,"orbitMaxDistance":100.0,"orbitMaxPolarAngle":3.1415927410125732,"orbitMaxZoom":100.0,"orbitMinDistance":0.0,"orbitMinPolarAngle":0.0,"orbitMinZoom":0.009999999776482582,"orbitTarget":[0.0,0.0,-0.0],"rotateSpeed":1.0,"viewportFitInitialAspect":1.7777777777777777,"viewportFitType":"AUTO"}},"name":"Camera.001","perspective":{"aspectRatio":1.7777777777777777,"yfov":0.39959652046304894,"zfar":100.0,"znear":0.10000000149011612},"type":"perspective"}],"extensions":{"S8S_v3d_lights":{"lights":[{"color":[1.0,1.0,1.0],"decay":2,"distance":31.622776955095866,"intensity":1000.0,"name":"Light.003","profile":"blender","shadow":{"bias":-0.0018,"cameraFar":31.622776955095866,"cameraFov":0,"cameraNear":0.05000000074505806,"enabled":true,"expBias":2.5,"mapSize":512,"radius":1.0,"slopeScaledBias":2.5},"type":"point"},{"color":[1.0,1.0,1.0],"decay":2,"distance":31.622776955095866,"intensity":1000.0,"name":"Light.004","profile":"blender","shadow":{"bias":-0.0018,"cameraFar":31.622776955095866,"cameraFov":0,"cameraNear":0.05000000074505806,"enabled":true,"expBias":2.5,"mapSize":512,"radius":1.0,"slopeScaledBias":2.5},"type":"point"},{"color":[1.0,1.0,1.0],"decay":2,"distance":31.622776955095866,"intensity":1000.0,"name":"Light.005","profile":"blender","shadow":{"bias":-0.0018,"cameraFar":31.622776955095866,"cameraFov":0,"cameraNear":0.05000000074505806,"enabled":true,"expBias":2.5,"mapSize":512,"radius":1.0,"slopeScaledBias":2.5},"type":"point"}]}},"extensionsUsed":["S8S_v3d_texture","S8S_v3d_materials","S8S_v3d_camera","S8S_v3d_lights","S8S_v3d_mesh","S8S_v3d_node","S8S_v3d_animation","S8S_v3d_scene"],"images":[{"uri":"Cycle_6227S_10_Normal.png"},{"uri":"Cycle_6227S_10_Roughness.jpeg"},{"uri":"Cycle_6227S_10_Base Color.jpeg"}],"materials":[{"extensions":{"S8S_v3d_materials":{"gtaoVisible":true,"materialIndex":0,"nodeGraph":{"edges":[{"fromNode":8,"fromOutput":0,"toInput":0,"toNode":7},{"fromNode":6,"fromOutput":0,"toInput":22,"toNode":8},{"fromNode":17,"fromOutput":0,"toInput":1,"toNode":6},{"fromNode":18,"fromOutput":0,"toInput":9,"toNode":8},{"fromNode":19,"fromOutput":0,"toInput":0,"toNode":8},{"fromNode":10,"fromOutput":0,"toInput":0,"toNode":9},{"fromNode":14,"fromOutput":0,"toInput":0,"toNode":13},{"fromNode":15,"fromOutput":0,"toInput":1,"toNode":13},{"fromNode":13,"fromOutput":0,"toInput":3,"toNode":9},{"fromNode":11,"fromOutput":0,"toInput":1,"toNode":9},{"fromNode":1,"fromOutput":0,"toInput":1,"toNode":14},{"fromNode":2,"fromOutput":0,"toInput":1,"toNode":15},{"fromNode":4,"fromOutput":0,"toInput":0,"toNode":11},{"fromNode":3,"fromOutput":0,"toInput":1,"toNode":11},{"fromNode":0,"fromOutput":0,"toInput":2,"toNode":12},{"fromNode":12,"fromOutput":0,"toInput":2,"toNode":9},{"fromNode":5,"fromOutput":0,"toInput":0,"toNode":15},{"fromNode":16,"fromOutput":0,"toInput":0,"toNode":14},{"fromNode":9,"fromOutput":0,"toInput":0,"toNode":19},{"fromNode":9,"fromOutput":0,"toInput":0,"toNode":18},{"fromNode":9,"fromOutput":0,"toInput":0,"toNode":17}],"nodes":[{"inputs":[],"is_active_output":false,"name":"fab_run","outputs":[0.0],"type":"VALUE_BL"},{"inputs":[],"is_active_output":false,"name":"scale_x","outputs":[1.0],"type":"VALUE_BL"},{"inputs":[],"is_active_output":false,"name":"scale_y","outputs":[1.0],"type":"VALUE_BL"},{"inputs":[],"is_active_output":false,"name":"position_y","outputs":[7.5],"type":"VALUE_BL"},{"inputs":[],"is_active_output":false,"name":"position_x","outputs":[7.5],"type":"VALUE_BL"},{"inputs":[],"is_active_output":false,"name":"ratio_constant","outputs":[1.0],"type":"VALUE_BL"},{"inputs":[1.0,[0.5,0.5,1.0,1.0]],"is_active_output":false,"name":"Normal Map","outputs":[[0.0,0.0,0.0]],"type":"NORMAL_MAP_BL","uvLayer":"UVMap"},{"inputs":[[0,0,0,0],[0,0,0,0],[0.0,0.0,0.0],0.0],"is_active_output":true,"name":"Material Output","outputs":[],"type":"OUTPUT_MATERIAL_BL"},{"inputs":[[0.800000011920929,0.800000011920929,0.800000011920929,1.0],0.0,[1.0,0.20000000298023224,0.10000000149011612],[0.800000011920929,0.800000011920929,0.800000011920929,1.0],1.399999976158142,0.0,0.0,0.5,0.0,0.5,0.0,0.0,0.0,0.5,0.0,0.029999999329447746,1.4500000476837158,0.0,0.0,[0.0,0.0,0.0,1.0],1.0,1.0,[0.0,0.0,0.0],[0.0,0.0,0.0],[0.0,0.0,0.0]],"is_active_output":false,"name":"Principled BSDF","outputs":[[0,0,0,0]],"type":"BSDF_PRINCIPLED_BL"},{"inputs":[[0.0,0.0,0.0],[-5.913119316101074,-1.2192002534866333,0.0],[0.0,0.0,0.0],[1.0,1.0,1.0]],"is_active_output":false,"name":"Mapping","outputs":[[0.0,0.0,0.0]],"type":"MAPPING_BL","vectorType":"POINT"},{"inputs":[],"is_active_output":false,"name":"UV Map","outputs":[[0.0,0.0,0.0]],"type":"UVMAP_BL","uvLayer":"UVMap"},{"inputs":[5.0,5.0,1.0],"is_active_output":false,"name":"Combine XYZ_1","outputs":[[0.0,0.0,0.0]],"type":"COMBXYZ_BL"},{"inputs":[0.0,0.0,1.0],"is_active_output":false,"name":"Combine XYZ_2","outputs":[[0.0,0.0,0.0]],"type":"COMBXYZ_BL"},{"inputs":[5.0,5.0,1.0],"is_active_output":false,"name":"Combine XYZ_3","outputs":[[0.0,0.0,0.0]],"type":"COMBXYZ_BL"},{"inputs":[0.5,7.5,0.0],"is_active_output":false,"name":"Multiply_1","operation":"MULTIPLY","outputs":[0.0],"type":"MATH_BL","useClamp":false},{"inputs":[0.5,7.5,0.0],"is_active_output":false,"name":"Multiply_2","operation":"MULTIPLY","outputs":[0.0],"type":"MATH_BL","useClamp":false},{"inputs":[],"is_active_output":false,"name":"ratio","outputs":[1.0],"type":"VALUE_BL"},{"alphaMode":"STRAIGHT","inputs":[[0.0,0.0,0.0]],"is_active_output":false,"name":"lum_pillow_normal_color_2","outputs":[[0.0,0.0,0.0,0.0],0.0],"projection":"FLAT","projectionBlend":0.0,"texture":0,"type":"TEX_IMAGE_BL"},{"alphaMode":"STRAIGHT","inputs":[[0.0,0.0,0.0]],"is_active_output":false,"name":"lum_pillow_roughness_2","outputs":[[0.0,0.0,0.0,0.0],0.0],"projection":"FLAT","projectionBlend":0.0,"texture":1,"type":"TEX_IMAGE_BL"},{"alphaMode":"STRAIGHT","inputs":[[0.0,0.0,0.0]],"is_active_output":false,"name":"lum_pillow_base_color_2","outputs":[[0.0,0.0,0.0,0.0],0.0],"projection":"FLAT","projectionBlend":0.0,"texture":2,"type":"TEX_IMAGE_BL"}]},"useCastShadows":true}},"name":"Lum_Pillow_material_2.001"},{"extensions":{"S8S_v3d_materials":{"gtaoVisible":true,"materialIndex":0,"nodeGraph":{"edges":[{"fromNode":1,"fromOutput":0,"toInput":0,"toNode":0},{"fromNode":2,"fromOutput":0,"toInput":0,"toNode":3}],"nodes":[{"inputs":[[0,0,0,0],[0,0,0,0]],"is_active_output":true,"name":"World Output","outputs":[],"type":"OUTPUT_WORLD_BL"},{"inputs":[[0.05087608844041824,0.05087608844041824,0.05087608844041824,1.0],1.0],"is_active_output":false,"name":"Background","outputs":[[0,0,0,0]],"type":"BACKGROUND_BL"},{"groundAlbedo":0.30000001192092896,"inputs":[[0.0,0.0,0.0]],"is_active_output":false,"name":"Sky Texture","outputs":[[0.0,0.0,0.0,0.0]],"skyType":"HOSEK_WILKIE","sunDirection":[0.0,0.0,1.0],"turbidity":2.200000047683716,"type":"TEX_SKY_BL"},{"inputs":[[0.800000011920929,0.800000011920929,0.800000011920929,1.0],1.0],"is_active_output":false,"name":"Background.001","outputs":[[0,0,0,0]],"type":"BACKGROUND_BL"}]},"useCastShadows":true}},"name":"Verge3D_Environment_World.001"}],"meshes":[{"extensions":{"S8S_v3d_mesh":{"colorLayers":{},"uvLayers":{"Stitching_1":"TEXCOORD_1","Stitching_2":"TEXCOORD_2","Stitching_3":"TEXCOORD_3","Stitching_4":"TEXCOORD_4","UVMap":"TEXCOORD_0"}}},"name":"Cube.001","primitives":[{"attributes":{"NORMAL":2,"POSITION":1,"TANGENT":3,"TEXCOORD_0":4,"TEXCOORD_1":5,"TEXCOORD_2":6,"TEXCOORD_3":7,"TEXCOORD_4":8},"indices":0,"material":0,"mode":4},{"attributes":{"NORMAL":11,"POSITION":10,"TANGENT":12,"TEXCOORD_0":13,"TEXCOORD_1":14,"TEXCOORD_2":15,"TEXCOORD_3":16,"TEXCOORD_4":17},"indices":9,"material":0,"mode":4},{"attributes":{"NORMAL":20,"POSITION":19,"TANGENT":21,"TEXCOORD_0":22,"TEXCOORD_1":23,"TEXCOORD_2":24,"TEXCOORD_3":25,"TEXCOORD_4":26},"indices":18,"material":0,"mode":4}]},{"extensions":{"S8S_v3d_mesh":{"colorLayers":{},"uvLayers":{"UVMap":"TEXCOORD_0"}}},"name":"Pipe.016","primitives":[{"attributes":{"NORMAL":29,"POSITION":28,"TANGENT":30,"TEXCOORD_0":31},"indices":27,"material":0,"mode":4}]},{"extensions":{"S8S_v3d_mesh":{"colorLayers":{},"uvLayers":{"UVMap":"TEXCOORD_0"}}},"name":"Pipe.017","primitives":[{"attributes":{"NORMAL":34,"POSITION":33,"TANGENT":35,"TEXCOORD_0":36},"indices":32,"material":0,"mode":4}]}],"nodes":[{"extensions":{"S8S_v3d_node":{"frustumCulling":true,"groupNames":["B10_SC_SH18_VCT6_T2_SM_48x20x8_MULTI"],"hidden":false,"hidpiCompositing":false,"objectColor":[1.0,1.0,1.0,1.0],"objectIndex":0,"renderOrder":0,"useShadows":true}},"mesh":1,"name":"B10_SC_SH18_VCT6_T2_SM_48x20x8_MULTI_WLTS1_1","translation":[7.549922287353183e-08,0.6749007105827332,0.07773211598396301]},{"children":[0],"name":"v3d_Proxy_Node_0_B10_SC_SH18_VCT6_T2_SM_48x20x8_MULTI_WLTS1_1","scale":[0.5848559737205505,0.5848559737205505,0.5848559737205505]},{"extensions":{"S8S_v3d_node":{"frustumCulling":true,"groupNames":["B10_SC_SH18_VCT6_T2_SM_48x20x8_MULTI"],"hidden":false,"hidpiCompositing":false,"objectColor":[1.0,1.0,1.0,1.0],"objectIndex":0,"renderOrder":0,"useShadows":true}},"mesh":2,"name":"B10_SC_SH18_VCT6_T2_SM_48x20x8_MULTI_WLTS1_2","translation":[4.190951585769653e-09,0.563257098197937,0.3507453203201294]},{"children":[2],"name":"v3d_Proxy_Node_0_B10_SC_SH18_VCT6_T2_SM_48x20x8_MULTI_WLTS1_2","scale":[0.5848559737205505,0.5848559737205505,0.5848559737205505]},{"children":[6,1,3],"extensions":{"S8S_v3d_node":{"frustumCulling":true,"groupNames":["B10_SC_SH18_VCT6_T2_SM_48x20x8_MULTI"],"hidden":false,"hidpiCompositing":false,"objectColor":[1.0,1.0,1.0,1.0],"objectIndex":0,"renderOrder":0}},"name":"Sphere_Limit.001","scale":[1.709822654724121,1.709822654724121,1.709822654724121]},{"extensions":{"S8S_v3d_node":{"frustumCulling":true,"groupNames":["B10_SC_SH18_VCT6_T2_SM_48x20x8_MULTI"],"hidden":false,"hidpiCompositing":false,"objectColor":[1.0,1.0,1.0,1.0],"objectIndex":0,"renderOrder":0,"useShadows":true}},"mesh":0,"name":"B10_SC_SH18_VCT6_T2_SM_48x20x8_MULTI","translation":[-5.128866177983582e-05,0.6284782290458679,0.09591315686702728]},{"children":[5],"name":"v3d_Proxy_Node_0_B10_SC_SH18_VCT6_T2_SM_48x20x8_MULTI","scale":[0.5848559737205505,0.5848559737205505,0.5848559737205505]}],"samplers":[{}],"scene":0,"scenes":[{"extensions":{"S8S_v3d_scene":{"aaMethod":"AUTO","iblEnvironmentMode":"PMREM","physicallyCorrectLights":true,"pmremMaxTileSize":512,"postprocessing":[{"edgeGlow":0.0,"edgeStrength":3.0,"edgeThickness":1.0,"hiddenEdgeColor":[0.10000000149011612,0.10000000149011612,0.10000000149011612,1.0],"pulsePeriod":0.0,"renderHiddenEdge":true,"type":"outline","visibleEdgeColor":[1.0,1.0,1.0,1.0]}],"shadowMap":{"esmDistanceScale":1.0,"renderReverseSided":false,"renderSingleSided":true,"type":"PCFPOISSON"},"toneMapping":{"type":"filmicBlender"}}},"extras":{"animFrameRate":24,"coordSystem":"Z_UP_RIGHT"},"name":"Scene","nodes":[4]}],"textures":[{"extensions":{"S8S_v3d_texture":{"colorSpace":"srgb"}},"name":"Cycle_6227S_10_Normal.png","sampler":0,"source":0},{"extensions":{"S8S_v3d_texture":{"colorSpace":"srgb"}},"name":"Cycle_6227S_10_Roughness.jpeg","sampler":0,"source":1},{"extensions":{"S8S_v3d_texture":{"colorSpace":"srgb"}},"name":"Cycle_6227S_10_Base Color.jpeg","sampler":0,"source":2}]}
