{"accessors":[{"bufferView":0,"componentType":5123,"count":2688,"max":[577],"min":[0],"type":"SCALAR"},{"bufferView":1,"componentType":5126,"count":578,"max":[0.3047999143600464,0.053369175642728806,0.053369395434856415],"min":[-0.30479979515075684,-0.05336959660053253,-0.05336938798427582],"type":"VEC3"},{"bufferView":2,"componentType":5126,"count":578,"max":[0.709816038608551,1.0,1.0],"min":[-0.7098170518875122,-1.0,-1.0],"type":"VEC3"},{"bufferView":3,"componentType":5126,"count":578,"max":[1.0,0.7098156809806824,0.7087451815605164,1.0],"min":[0.7043813467025757,-0.7098137140274048,-0.7087406516075134,1.0],"type":"VEC4"},{"bufferView":4,"componentType":5126,"count":578,"max":[0.7800267934799194,1.3354283571243286],"min":[-0.4617661237716675,0.6569814682006836],"type":"VEC2"},{"bufferView":5,"componentType":5126,"count":578,"max":[1.4066853523254395,0.9885120391845703],"min":[-0.40668541193008423,0.4999937415122986],"type":"VEC2"},{"bufferView":6,"componentType":5126,"count":578,"max":[0.009749561548233032,0.9902504682540894],"min":[0.009749561548233032,0.9902504682540894],"type":"VEC2"},{"bufferView":7,"componentType":5126,"count":578,"max":[0.009749561548233032,0.9885120391845703],"min":[0.009749561548233032,0.9885120391845703],"type":"VEC2"},{"bufferView":8,"componentType":5126,"count":578,"max":[0.009749561548233032,0.9902504682540894],"min":[0.009749561548233032,0.9902504682540894],"type":"VEC2"},{"bufferView":9,"componentType":5126,"count":578,"max":[0.008011072874069214,0.9919889569282532],"min":[0.008011072874069214,0.9919889569282532],"type":"VEC2"},{"bufferView":10,"componentType":5123,"count":2304,"max":[493],"min":[0],"type":"SCALAR"},{"bufferView":11,"componentType":5126,"count":494,"max":[0.31324753165245056,0.0474725216627121,0.04747273400425911],"min":[-0.3132473826408386,-0.04747296869754791,-0.047472741454839706],"type":"VEC3"},{"bufferView":12,"componentType":5126,"count":494,"max":[1.0,0.7043880820274353,0.7054689526557922],"min":[-1.0,-0.7043880820274353,-0.705471932888031],"type":"VEC3"},{"bufferView":13,"componentType":5126,"count":494,"max":[0.7054675817489624,0.15298056602478027,1.0,1.0],"min":[-0.7054703235626221,-0.15409782528877258,-1.0,1.0],"type":"VEC4"},{"bufferView":14,"componentType":5126,"count":494,"max":[-0.03971763700246811,0.6257463097572327],"min":[-0.46176576614379883,0.43053603172302246],"type":"VEC2"},{"bufferView":15,"componentType":5126,"count":494,"max":[1.4066853523254395,0.9885120391845703],"min":[-0.40668541193008423,0.4694640636444092],"type":"VEC2"},{"bufferView":16,"componentType":5126,"count":494,"max":[0.009749561548233032,0.9902504682540894],"min":[0.009749561548233032,0.9902504682540894],"type":"VEC2"},{"bufferView":17,"componentType":5126,"count":494,"max":[0.009749561548233032,0.9885120391845703],"min":[0.009749561548233032,0.9885120391845703],"type":"VEC2"},{"bufferView":18,"componentType":5126,"count":494,"max":[0.009749561548233032,0.9902504682540894],"min":[0.009749561548233032,0.9902504682540894],"type":"VEC2"},{"bufferView":19,"componentType":5126,"count":494,"max":[0.008011072874069214,0.9919889569282532],"min":[0.008011072874069214,0.9919889569282532],"type":"VEC2"},{"bufferView":20,"componentType":5123,"count":3072,"max":[593],"min":[0],"type":"SCALAR"},{"bufferView":21,"componentType":5126,"count":594,"max":[0.3073394298553467,0.05001181736588478,0.05001179873943329],"min":[-0.3073394298553467,-0.050011806190013885,-0.050011806190013885],"type":"VEC3"},{"bufferView":22,"componentType":5126,"count":594,"max":[0.9999858736991882,0.9996431469917297,0.999643087387085],"min":[-0.9999858736991882,-0.999643087387085,-0.999643087387085],"type":"VEC3"},{"bufferView":23,"componentType":5126,"count":594,"max":[0.7259910702705383,0.999965488910675,0.9999228119850159,1.0],"min":[-0.726096510887146,-0.9999061226844788,-0.9999353289604187,1.0],"type":"VEC4"},{"bufferView":24,"componentType":5126,"count":594,"max":[0.11182801425457001,0.9960591793060303],"min":[0.003932584077119827,0.8544355630874634],"type":"VEC2"},{"bufferView":25,"componentType":5126,"count":14,"max":[33.29166793823242],"min":[5.354166507720947],"type":"SCALAR"},{"bufferView":26,"componentType":5126,"count":14,"max":[0.0,0.9995663166046143,-0.0,1.0],"min":[0.0,-8.742277657347586e-08,-0.0,-1.0],"type":"VEC4"}],"animations":[{"channels":[{"sampler":0,"target":{"node":0,"path":"rotation"}}],"extensions":{"S8S_v3d_animation":{"auto":true,"loop":"REPEAT","offset":0.0,"repeatCount":1.0,"repeatInfinite":true}},"name":"Sphere_Limit.004","samplers":[{"input":25,"interpolation":"LINEAR","output":26}]}],"asset":{"generator":"Verge3D for Blender","version":"2.0"},"bufferViews":[{"buffer":0,"byteLength":5376,"byteOffset":0,"target":34963},{"buffer":0,"byteLength":6936,"byteOffset":5376,"target":34962},{"buffer":0,"byteLength":6936,"byteOffset":12312,"target":34962},{"buffer":0,"byteLength":9248,"byteOffset":19248,"target":34962},{"buffer":0,"byteLength":4624,"byteOffset":28496,"target":34962},{"buffer":0,"byteLength":4624,"byteOffset":33120,"target":34962},{"buffer":0,"byteLength":4624,"byteOffset":37744,"target":34962},{"buffer":0,"byteLength":4624,"byteOffset":42368,"target":34962},{"buffer":0,"byteLength":4624,"byteOffset":46992,"target":34962},{"buffer":0,"byteLength":4624,"byteOffset":51616,"target":34962},{"buffer":0,"byteLength":4608,"byteOffset":56240,"target":34963},{"buffer":0,"byteLength":5928,"byteOffset":60848,"target":34962},{"buffer":0,"byteLength":5928,"byteOffset":66776,"target":34962},{"buffer":0,"byteLength":7904,"byteOffset":72704,"target":34962},{"buffer":0,"byteLength":3952,"byteOffset":80608,"target":34962},{"buffer":0,"byteLength":3952,"byteOffset":84560,"target":34962},{"buffer":0,"byteLength":3952,"byteOffset":88512,"target":34962},{"buffer":0,"byteLength":3952,"byteOffset":92464,"target":34962},{"buffer":0,"byteLength":3952,"byteOffset":96416,"target":34962},{"buffer":0,"byteLength":3952,"byteOffset":100368,"target":34962},{"buffer":0,"byteLength":6144,"byteOffset":104320,"target":34963},{"buffer":0,"byteLength":7128,"byteOffset":110464,"target":34962},{"buffer":0,"byteLength":7128,"byteOffset":117592,"target":34962},{"buffer":0,"byteLength":9504,"byteOffset":124720,"target":34962},{"buffer":0,"byteLength":4752,"byteOffset":134224,"target":34962},{"buffer":0,"byteLength":56,"byteOffset":138976},{"buffer":0,"byteLength":224,"byteOffset":139032}],"buffers":[{"byteLength":139256,"uri":"B_BP_SH18_PL_T1_SM_24x4x4_MULTI.bin"}],"cameras":[{"extensions":{"S8S_v3d_camera":{"controls":"ORBIT","enablePan":true,"moveSpeed":1.0,"orbitMaxDistance":100.0,"orbitMaxPolarAngle":3.1415927410125732,"orbitMaxZoom":100.0,"orbitMinDistance":0.0,"orbitMinPolarAngle":0.0,"orbitMinZoom":0.009999999776482582,"orbitTarget":[0.0,0.0,-0.0],"rotateSpeed":1.0,"viewportFitInitialAspect":1.7777777777777777,"viewportFitType":"AUTO"}},"name":"Camera.001","perspective":{"aspectRatio":1.7777777777777777,"yfov":0.39959652046304894,"zfar":100.0,"znear":0.10000000149011612},"type":"perspective"}],"extensions":{"S8S_v3d_lights":{"lights":[{"color":[1.0,1.0,1.0],"decay":2,"distance":31.622776955095866,"intensity":1000.0,"name":"Light.003","profile":"blender","shadow":{"bias":-0.0018,"cameraFar":31.622776955095866,"cameraFov":0,"cameraNear":0.05000000074505806,"enabled":true,"expBias":2.5,"mapSize":512,"radius":1.0,"slopeScaledBias":2.5},"type":"point"},{"color":[1.0,1.0,1.0],"decay":2,"distance":31.622776955095866,"intensity":1000.0,"name":"Light.004","profile":"blender","shadow":{"bias":-0.0018,"cameraFar":31.622776955095866,"cameraFov":0,"cameraNear":0.05000000074505806,"enabled":true,"expBias":2.5,"mapSize":512,"radius":1.0,"slopeScaledBias":2.5},"type":"point"},{"color":[1.0,1.0,1.0],"decay":2,"distance":31.622776955095866,"intensity":1000.0,"name":"Light.005","profile":"blender","shadow":{"bias":-0.0018,"cameraFar":31.622776955095866,"cameraFov":0,"cameraNear":0.05000000074505806,"enabled":true,"expBias":2.5,"mapSize":512,"radius":1.0,"slopeScaledBias":2.5},"type":"point"}]}},"extensionsUsed":["S8S_v3d_texture","S8S_v3d_materials","S8S_v3d_camera","S8S_v3d_lights","S8S_v3d_mesh","S8S_v3d_node","S8S_v3d_animation","S8S_v3d_scene"],"images":[{"uri":"Cycle_6227S_10_Normal.png"},{"uri":"Cycle_6227S_10_Roughness.jpeg"},{"uri":"Cycle_6227S_10_Base Color.jpeg"}],"materials":[{"extensions":{"S8S_v3d_materials":{"gtaoVisible":true,"materialIndex":0,"nodeGraph":{"edges":[{"fromNode":8,"fromOutput":0,"toInput":0,"toNode":7},{"fromNode":6,"fromOutput":0,"toInput":22,"toNode":8},{"fromNode":17,"fromOutput":0,"toInput":1,"toNode":6},{"fromNode":18,"fromOutput":0,"toInput":9,"toNode":8},{"fromNode":19,"fromOutput":0,"toInput":0,"toNode":8},{"fromNode":10,"fromOutput":0,"toInput":0,"toNode":9},{"fromNode":14,"fromOutput":0,"toInput":0,"toNode":13},{"fromNode":15,"fromOutput":0,"toInput":1,"toNode":13},{"fromNode":13,"fromOutput":0,"toInput":3,"toNode":9},{"fromNode":11,"fromOutput":0,"toInput":1,"toNode":9},{"fromNode":1,"fromOutput":0,"toInput":1,"toNode":14},{"fromNode":2,"fromOutput":0,"toInput":1,"toNode":15},{"fromNode":4,"fromOutput":0,"toInput":0,"toNode":11},{"fromNode":3,"fromOutput":0,"toInput":1,"toNode":11},{"fromNode":0,"fromOutput":0,"toInput":2,"toNode":12},{"fromNode":12,"fromOutput":0,"toInput":2,"toNode":9},{"fromNode":5,"fromOutput":0,"toInput":0,"toNode":15},{"fromNode":16,"fromOutput":0,"toInput":0,"toNode":14},{"fromNode":9,"fromOutput":0,"toInput":0,"toNode":19},{"fromNode":9,"fromOutput":0,"toInput":0,"toNode":18},{"fromNode":9,"fromOutput":0,"toInput":0,"toNode":17}],"nodes":[{"inputs":[],"is_active_output":false,"name":"fab_run","outputs":[0.0],"type":"VALUE_BL"},{"inputs":[],"is_active_output":false,"name":"scale_x","outputs":[1.0],"type":"VALUE_BL"},{"inputs":[],"is_active_output":false,"name":"scale_y","outputs":[1.0],"type":"VALUE_BL"},{"inputs":[],"is_active_output":false,"name":"position_y","outputs":[7.5],"type":"VALUE_BL"},{"inputs":[],"is_active_output":false,"name":"position_x","outputs":[7.5],"type":"VALUE_BL"},{"inputs":[],"is_active_output":false,"name":"ratio_constant","outputs":[1.0],"type":"VALUE_BL"},{"inputs":[1.0,[0.5,0.5,1.0,1.0]],"is_active_output":false,"name":"Normal Map","outputs":[[0.0,0.0,0.0]],"type":"NORMAL_MAP_BL","uvLayer":"UVMap"},{"inputs":[[0,0,0,0],[0,0,0,0],[0.0,0.0,0.0],0.0],"is_active_output":true,"name":"Material Output","outputs":[],"type":"OUTPUT_MATERIAL_BL"},{"inputs":[[0.800000011920929,0.800000011920929,0.800000011920929,1.0],0.0,[1.0,0.20000000298023224,0.10000000149011612],[0.800000011920929,0.800000011920929,0.800000011920929,1.0],1.399999976158142,0.0,0.0,0.5,0.0,0.5,0.0,0.0,0.0,0.5,0.0,0.029999999329447746,1.4500000476837158,0.0,0.0,[0.0,0.0,0.0,1.0],1.0,1.0,[0.0,0.0,0.0],[0.0,0.0,0.0],[0.0,0.0,0.0]],"is_active_output":false,"name":"Principled BSDF","outputs":[[0,0,0,0]],"type":"BSDF_PRINCIPLED_BL"},{"inputs":[[0.0,0.0,0.0],[-5.913119316101074,-1.2192002534866333,0.0],[0.0,0.0,0.0],[1.0,1.0,1.0]],"is_active_output":false,"name":"Mapping","outputs":[[0.0,0.0,0.0]],"type":"MAPPING_BL","vectorType":"POINT"},{"inputs":[],"is_active_output":false,"name":"UV Map","outputs":[[0.0,0.0,0.0]],"type":"UVMAP_BL","uvLayer":"UVMap"},{"inputs":[5.0,5.0,1.0],"is_active_output":false,"name":"Combine XYZ_1","outputs":[[0.0,0.0,0.0]],"type":"COMBXYZ_BL"},{"inputs":[0.0,0.0,1.0],"is_active_output":false,"name":"Combine XYZ_2","outputs":[[0.0,0.0,0.0]],"type":"COMBXYZ_BL"},{"inputs":[5.0,5.0,1.0],"is_active_output":false,"name":"Combine XYZ_3","outputs":[[0.0,0.0,0.0]],"type":"COMBXYZ_BL"},{"inputs":[0.5,7.5,0.0],"is_active_output":false,"name":"Multiply_1","operation":"MULTIPLY","outputs":[0.0],"type":"MATH_BL","useClamp":false},{"inputs":[0.5,7.5,0.0],"is_active_output":false,"name":"Multiply_2","operation":"MULTIPLY","outputs":[0.0],"type":"MATH_BL","useClamp":false},{"inputs":[],"is_active_output":false,"name":"ratio","outputs":[1.0],"type":"VALUE_BL"},{"alphaMode":"STRAIGHT","inputs":[[0.0,0.0,0.0]],"is_active_output":false,"name":"lum_pillow_normal_color_2","outputs":[[0.0,0.0,0.0,0.0],0.0],"projection":"FLAT","projectionBlend":0.0,"texture":0,"type":"TEX_IMAGE_BL"},{"alphaMode":"STRAIGHT","inputs":[[0.0,0.0,0.0]],"is_active_output":false,"name":"lum_pillow_roughness_2","outputs":[[0.0,0.0,0.0,0.0],0.0],"projection":"FLAT","projectionBlend":0.0,"texture":1,"type":"TEX_IMAGE_BL"},{"alphaMode":"STRAIGHT","inputs":[[0.0,0.0,0.0]],"is_active_output":false,"name":"lum_pillow_base_color_2","outputs":[[0.0,0.0,0.0,0.0],0.0],"projection":"FLAT","projectionBlend":0.0,"texture":2,"type":"TEX_IMAGE_BL"}]},"useCastShadows":true}},"name":"Lum_Pillow_material_2.002"},{"extensions":{"S8S_v3d_materials":{"gtaoVisible":true,"materialIndex":0,"nodeGraph":{"edges":[{"fromNode":1,"fromOutput":0,"toInput":0,"toNode":0},{"fromNode":2,"fromOutput":0,"toInput":0,"toNode":3}],"nodes":[{"inputs":[[0,0,0,0],[0,0,0,0]],"is_active_output":true,"name":"World Output","outputs":[],"type":"OUTPUT_WORLD_BL"},{"inputs":[[0.05087608844041824,0.05087608844041824,0.05087608844041824,1.0],1.0],"is_active_output":false,"name":"Background","outputs":[[0,0,0,0]],"type":"BACKGROUND_BL"},{"groundAlbedo":0.30000001192092896,"inputs":[[0.0,0.0,0.0]],"is_active_output":false,"name":"Sky Texture","outputs":[[0.0,0.0,0.0,0.0]],"skyType":"HOSEK_WILKIE","sunDirection":[0.0,0.0,1.0],"turbidity":2.200000047683716,"type":"TEX_SKY_BL"},{"inputs":[[0.800000011920929,0.800000011920929,0.800000011920929,1.0],1.0],"is_active_output":false,"name":"Background.001","outputs":[[0,0,0,0]],"type":"BACKGROUND_BL"}]},"useCastShadows":true}},"name":"Verge3D_Environment_World.001"}],"meshes":[{"extensions":{"S8S_v3d_mesh":{"colorLayers":{},"uvLayers":{"Stitching_1":"TEXCOORD_1","Stitching_2":"TEXCOORD_2","Stitching_3":"TEXCOORD_3","Stitching_4":"TEXCOORD_4","Stitching_5":"TEXCOORD_5","UVMap":"TEXCOORD_0"}}},"name":"Cube.016","primitives":[{"attributes":{"NORMAL":2,"POSITION":1,"TANGENT":3,"TEXCOORD_0":4,"TEXCOORD_1":5,"TEXCOORD_2":6,"TEXCOORD_3":7,"TEXCOORD_4":8,"TEXCOORD_5":9},"indices":0,"material":0,"mode":4},{"attributes":{"NORMAL":12,"POSITION":11,"TANGENT":13,"TEXCOORD_0":14,"TEXCOORD_1":15,"TEXCOORD_2":16,"TEXCOORD_3":17,"TEXCOORD_4":18,"TEXCOORD_5":19},"indices":10,"material":0,"mode":4}]},{"extensions":{"S8S_v3d_mesh":{"colorLayers":{},"uvLayers":{"UVMap":"TEXCOORD_0"}}},"name":"Pipe.018","primitives":[{"attributes":{"NORMAL":22,"POSITION":21,"TANGENT":23,"TEXCOORD_0":24},"indices":20,"material":0,"mode":4}]}],"nodes":[{"children":[2,4],"extensions":{"S8S_v3d_node":{"frustumCulling":true,"groupNames":["B_BP_SH18_PL_T1_SM_24x4x4_MULTI"],"hidden":false,"hidpiCompositing":false,"objectColor":[1.0,1.0,1.0,1.0],"objectIndex":0,"renderOrder":0}},"name":"Sphere_Limit.004","scale":[1.709822654724121,1.709822654724121,1.709822654724121]},{"extensions":{"S8S_v3d_node":{"frustumCulling":true,"groupNames":["B_BP_SH18_PL_T1_SM_24x4x4_MULTI"],"hidden":false,"hidpiCompositing":false,"objectColor":[1.0,1.0,1.0,1.0],"objectIndex":0,"renderOrder":0,"useShadows":true}},"mesh":0,"name":"B_BP_SH18_PL_T1_SM_24x4x4_MULTI","translation":[4.50679721097913e-07,0.7788981795310974,-0.10159999877214432]},{"children":[1],"name":"v3d_Proxy_Node_0_B_BP_SH18_PL_T1_SM_24x4x4_MULTI","scale":[0.5848559737205505,0.5848559737205505,0.5848559737205505]},{"extensions":{"S8S_v3d_node":{"frustumCulling":true,"groupNames":["B_BP_SH18_PL_T1_SM_24x4x4_MULTI"],"hidden":false,"hidpiCompositing":false,"objectColor":[1.0,1.0,1.0,1.0],"objectIndex":0,"renderOrder":0,"useShadows":true}},"mesh":1,"name":"B_BP_SH18_PL_T1_SM_24x4x4_MULTI_WLTS1_1","translation":[5.6461431086063385e-09,0.7788979411125183,-0.10159999877214432]},{"children":[3],"name":"v3d_Proxy_Node_0_B_BP_SH18_PL_T1_SM_24x4x4_MULTI_WLTS1_1","scale":[0.5848559737205505,0.5848559737205505,0.5848559737205505]}],"samplers":[{}],"scene":0,"scenes":[{"extensions":{"S8S_v3d_scene":{"aaMethod":"AUTO","iblEnvironmentMode":"PMREM","physicallyCorrectLights":true,"pmremMaxTileSize":512,"postprocessing":[{"edgeGlow":0.0,"edgeStrength":3.0,"edgeThickness":1.0,"hiddenEdgeColor":[0.10000000149011612,0.10000000149011612,0.10000000149011612,1.0],"pulsePeriod":0.0,"renderHiddenEdge":true,"type":"outline","visibleEdgeColor":[1.0,1.0,1.0,1.0]}],"shadowMap":{"esmDistanceScale":1.0,"renderReverseSided":false,"renderSingleSided":true,"type":"PCFPOISSON"},"toneMapping":{"type":"filmicBlender"}}},"extras":{"animFrameRate":24,"coordSystem":"Z_UP_RIGHT"},"name":"Scene","nodes":[0]}],"textures":[{"extensions":{"S8S_v3d_texture":{"colorSpace":"srgb"}},"name":"Cycle_6227S_10_Normal.png","sampler":0,"source":0},{"extensions":{"S8S_v3d_texture":{"colorSpace":"srgb"}},"name":"Cycle_6227S_10_Roughness.jpeg","sampler":0,"source":1},{"extensions":{"S8S_v3d_texture":{"colorSpace":"srgb"}},"name":"Cycle_6227S_10_Base Color.jpeg","sampler":0,"source":2}]}
