{"accessors":[{"bufferView":0,"componentType":5123,"count":13728,"max":[2376],"min":[0],"type":"SCALAR"},{"bufferView":1,"componentType":5126,"count":2377,"max":[0.2484101951122284,0.3586844205856323,0.3709089159965515],"min":[-0.4615612030029297,-0.2120695412158966,0.035439297556877136],"type":"VEC3"},{"bufferView":2,"componentType":5126,"count":2377,"max":[0.9959040284156799,0.9824915528297424,0.9955894947052002],"min":[-0.9927701354026794,-0.9953348636627197,-0.9997844099998474],"type":"VEC3"},{"bufferView":3,"componentType":5126,"count":2377,"max":[0.9996293187141418,0.9939334392547607,0.9994050860404968,1.0],"min":[-0.9929637312889099,-0.9736768007278442,-0.9879582524299622,1.0],"type":"VEC4"},{"bufferView":4,"componentType":5126,"count":2377,"max":[0.4300597906112671,1.5195033550262451],"min":[-0.2511853575706482,0.8261002898216248],"type":"VEC2"},{"bufferView":5,"componentType":5123,"count":13728,"max":[2376],"min":[0],"type":"SCALAR"},{"bufferView":6,"componentType":5126,"count":2377,"max":[0.24870026111602783,0.35813403129577637,0.38955962657928467],"min":[-0.4611057937145233,-0.2124529480934143,0.05384477972984314],"type":"VEC3"},{"bufferView":7,"componentType":5126,"count":2377,"max":[0.996525764465332,0.956602156162262,0.9992740154266357],"min":[-0.990513026714325,-0.9953348636627197,-0.9933145046234131],"type":"VEC3"},{"bufferView":8,"componentType":5126,"count":2377,"max":[0.99919593334198,0.9823904037475586,0.9987435340881348,1.0],"min":[-0.9995405077934265,-0.9913337230682373,-0.9993352293968201,1.0],"type":"VEC4"},{"bufferView":9,"componentType":5126,"count":2377,"max":[0.4270607829093933,0.7951465845108032],"min":[-0.25099465250968933,0.12162482738494873],"type":"VEC2"},{"bufferView":10,"componentType":5123,"count":4560,"max":[863],"min":[0],"type":"SCALAR"},{"bufferView":11,"componentType":5126,"count":864,"max":[0.25045067071914673,0.36115261912345886,0.3732873797416687],"min":[-0.4634958505630493,-0.21572327613830566,0.04832068085670471],"type":"VEC3"},{"bufferView":12,"componentType":5126,"count":864,"max":[0.9776909947395325,0.9936767816543579,0.9973381757736206],"min":[-0.984612762928009,-0.9940112233161926,-0.9995625019073486],"type":"VEC3"},{"bufferView":13,"componentType":5126,"count":864,"max":[0.9971088171005249,0.9951751828193665,0.9402632117271423,1.0],"min":[-0.9891275763511658,-0.999311089515686,-0.9990209937095642,1.0],"type":"VEC4"},{"bufferView":14,"componentType":5126,"count":864,"max":[0.437641441822052,0.9954621195793152],"min":[0.004519551992416382,0.5493842363357544],"type":"VEC2"},{"bufferView":15,"componentType":5126,"count":14,"max":[33.29166793823242],"min":[5.354166507720947],"type":"SCALAR"},{"bufferView":16,"componentType":5126,"count":14,"max":[0.0,0.9995663166046143,-0.0,1.0],"min":[0.0,-8.742277657347586e-08,-0.0,-1.0],"type":"VEC4"}],"animations":[{"channels":[{"sampler":0,"target":{"node":4,"path":"rotation"}}],"extensions":{"S8S_v3d_animation":{"auto":true,"loop":"REPEAT","offset":0.0,"repeatCount":1.0,"repeatInfinite":true}},"name":"Sphere_Limit.005","samplers":[{"input":15,"interpolation":"LINEAR","output":16}]}],"asset":{"generator":"Verge3D for Blender","version":"2.0"},"bufferViews":[{"buffer":0,"byteLength":27456,"byteOffset":0,"target":34963},{"buffer":0,"byteLength":28524,"byteOffset":27456,"target":34962},{"buffer":0,"byteLength":28524,"byteOffset":55980,"target":34962},{"buffer":0,"byteLength":38032,"byteOffset":84504,"target":34962},{"buffer":0,"byteLength":19016,"byteOffset":122536,"target":34962},{"buffer":0,"byteLength":27456,"byteOffset":141552,"target":34963},{"buffer":0,"byteLength":28524,"byteOffset":169008,"target":34962},{"buffer":0,"byteLength":28524,"byteOffset":197532,"target":34962},{"buffer":0,"byteLength":38032,"byteOffset":226056,"target":34962},{"buffer":0,"byteLength":19016,"byteOffset":264088,"target":34962},{"buffer":0,"byteLength":9120,"byteOffset":283104,"target":34963},{"buffer":0,"byteLength":10368,"byteOffset":292224,"target":34962},{"buffer":0,"byteLength":10368,"byteOffset":302592,"target":34962},{"buffer":0,"byteLength":13824,"byteOffset":312960,"target":34962},{"buffer":0,"byteLength":6912,"byteOffset":326784,"target":34962},{"buffer":0,"byteLength":56,"byteOffset":333696},{"buffer":0,"byteLength":224,"byteOffset":333752}],"buffers":[{"byteLength":333976,"uri":"B_PW_SH18_PL_T1_SM_12x12x2.bin"}],"cameras":[{"extensions":{"S8S_v3d_camera":{"controls":"ORBIT","enablePan":true,"moveSpeed":1.0,"orbitMaxDistance":100.0,"orbitMaxPolarAngle":3.1415927410125732,"orbitMaxZoom":100.0,"orbitMinDistance":0.0,"orbitMinPolarAngle":0.0,"orbitMinZoom":0.009999999776482582,"orbitTarget":[0.0,0.0,-0.0],"rotateSpeed":1.0,"viewportFitInitialAspect":1.7777777777777777,"viewportFitType":"AUTO"}},"name":"Camera.001","perspective":{"aspectRatio":1.7777777777777777,"yfov":0.39959652046304894,"zfar":100.0,"znear":0.10000000149011612},"type":"perspective"}],"extensions":{"S8S_v3d_lights":{"lights":[{"color":[1.0,1.0,1.0],"decay":2,"distance":31.622776955095866,"intensity":1000.0,"name":"Light.003","profile":"blender","shadow":{"bias":-0.0018,"cameraFar":31.622776955095866,"cameraFov":0,"cameraNear":0.05000000074505806,"enabled":true,"expBias":2.5,"mapSize":512,"radius":1.0,"slopeScaledBias":2.5},"type":"point"},{"color":[1.0,1.0,1.0],"decay":2,"distance":31.622776955095866,"intensity":1000.0,"name":"Light.004","profile":"blender","shadow":{"bias":-0.0018,"cameraFar":31.622776955095866,"cameraFov":0,"cameraNear":0.05000000074505806,"enabled":true,"expBias":2.5,"mapSize":512,"radius":1.0,"slopeScaledBias":2.5},"type":"point"},{"color":[1.0,1.0,1.0],"decay":2,"distance":31.622776955095866,"intensity":1000.0,"name":"Light.005","profile":"blender","shadow":{"bias":-0.0018,"cameraFar":31.622776955095866,"cameraFov":0,"cameraNear":0.05000000074505806,"enabled":true,"expBias":2.5,"mapSize":512,"radius":1.0,"slopeScaledBias":2.5},"type":"point"}]}},"extensionsUsed":["S8S_v3d_texture","S8S_v3d_materials","S8S_v3d_camera","S8S_v3d_lights","S8S_v3d_mesh","S8S_v3d_node","S8S_v3d_animation","S8S_v3d_scene"],"images":[{"uri":"Cycle_6227S_10_Normal.png"},{"uri":"Cycle_6227S_10_Roughness.jpeg"},{"uri":"Cycle_6227S_10_Base Color.jpeg"}],"materials":[{"extensions":{"S8S_v3d_materials":{"gtaoVisible":true,"materialIndex":0,"nodeGraph":{"edges":[{"fromNode":8,"fromOutput":0,"toInput":0,"toNode":7},{"fromNode":6,"fromOutput":0,"toInput":22,"toNode":8},{"fromNode":17,"fromOutput":0,"toInput":1,"toNode":6},{"fromNode":18,"fromOutput":0,"toInput":9,"toNode":8},{"fromNode":19,"fromOutput":0,"toInput":0,"toNode":8},{"fromNode":10,"fromOutput":0,"toInput":0,"toNode":9},{"fromNode":14,"fromOutput":0,"toInput":0,"toNode":13},{"fromNode":15,"fromOutput":0,"toInput":1,"toNode":13},{"fromNode":13,"fromOutput":0,"toInput":3,"toNode":9},{"fromNode":11,"fromOutput":0,"toInput":1,"toNode":9},{"fromNode":1,"fromOutput":0,"toInput":1,"toNode":14},{"fromNode":2,"fromOutput":0,"toInput":1,"toNode":15},{"fromNode":4,"fromOutput":0,"toInput":0,"toNode":11},{"fromNode":3,"fromOutput":0,"toInput":1,"toNode":11},{"fromNode":0,"fromOutput":0,"toInput":2,"toNode":12},{"fromNode":12,"fromOutput":0,"toInput":2,"toNode":9},{"fromNode":5,"fromOutput":0,"toInput":0,"toNode":15},{"fromNode":16,"fromOutput":0,"toInput":0,"toNode":14},{"fromNode":9,"fromOutput":0,"toInput":0,"toNode":19},{"fromNode":9,"fromOutput":0,"toInput":0,"toNode":18},{"fromNode":9,"fromOutput":0,"toInput":0,"toNode":17}],"nodes":[{"inputs":[],"is_active_output":false,"name":"fab_run","outputs":[0.0],"type":"VALUE_BL"},{"inputs":[],"is_active_output":false,"name":"scale_x","outputs":[1.0],"type":"VALUE_BL"},{"inputs":[],"is_active_output":false,"name":"scale_y","outputs":[1.0],"type":"VALUE_BL"},{"inputs":[],"is_active_output":false,"name":"position_y","outputs":[7.5],"type":"VALUE_BL"},{"inputs":[],"is_active_output":false,"name":"position_x","outputs":[7.5],"type":"VALUE_BL"},{"inputs":[],"is_active_output":false,"name":"ratio_constant","outputs":[1.0],"type":"VALUE_BL"},{"inputs":[1.0,[0.5,0.5,1.0,1.0]],"is_active_output":false,"name":"Normal Map","outputs":[[0.0,0.0,0.0]],"type":"NORMAL_MAP_BL","uvLayer":"UVMap"},{"inputs":[[0,0,0,0],[0,0,0,0],[0.0,0.0,0.0],0.0],"is_active_output":true,"name":"Material Output","outputs":[],"type":"OUTPUT_MATERIAL_BL"},{"inputs":[[0.800000011920929,0.800000011920929,0.800000011920929,1.0],0.0,[1.0,0.20000000298023224,0.10000000149011612],[0.800000011920929,0.800000011920929,0.800000011920929,1.0],1.399999976158142,0.0,0.0,0.5,0.0,0.5,0.0,0.0,0.0,0.5,0.0,0.029999999329447746,1.4500000476837158,0.0,0.0,[0.0,0.0,0.0,1.0],1.0,1.0,[0.0,0.0,0.0],[0.0,0.0,0.0],[0.0,0.0,0.0]],"is_active_output":false,"name":"Principled BSDF","outputs":[[0,0,0,0]],"type":"BSDF_PRINCIPLED_BL"},{"inputs":[[0.0,0.0,0.0],[-5.913119316101074,-1.2192002534866333,0.0],[0.0,0.0,0.0],[1.0,1.0,1.0]],"is_active_output":false,"name":"Mapping","outputs":[[0.0,0.0,0.0]],"type":"MAPPING_BL","vectorType":"POINT"},{"inputs":[],"is_active_output":false,"name":"UV Map","outputs":[[0.0,0.0,0.0]],"type":"UVMAP_BL","uvLayer":"UVMap"},{"inputs":[5.0,5.0,1.0],"is_active_output":false,"name":"Combine XYZ_1","outputs":[[0.0,0.0,0.0]],"type":"COMBXYZ_BL"},{"inputs":[0.0,0.0,1.0],"is_active_output":false,"name":"Combine XYZ_2","outputs":[[0.0,0.0,0.0]],"type":"COMBXYZ_BL"},{"inputs":[5.0,5.0,1.0],"is_active_output":false,"name":"Combine XYZ_3","outputs":[[0.0,0.0,0.0]],"type":"COMBXYZ_BL"},{"inputs":[0.5,7.5,0.0],"is_active_output":false,"name":"Multiply_1","operation":"MULTIPLY","outputs":[0.0],"type":"MATH_BL","useClamp":false},{"inputs":[0.5,7.5,0.0],"is_active_output":false,"name":"Multiply_2","operation":"MULTIPLY","outputs":[0.0],"type":"MATH_BL","useClamp":false},{"inputs":[],"is_active_output":false,"name":"ratio","outputs":[1.0],"type":"VALUE_BL"},{"alphaMode":"STRAIGHT","inputs":[[0.0,0.0,0.0]],"is_active_output":false,"name":"lum_pillow_normal_color_2","outputs":[[0.0,0.0,0.0,0.0],0.0],"projection":"FLAT","projectionBlend":0.0,"texture":0,"type":"TEX_IMAGE_BL"},{"alphaMode":"STRAIGHT","inputs":[[0.0,0.0,0.0]],"is_active_output":false,"name":"lum_pillow_roughness_2","outputs":[[0.0,0.0,0.0,0.0],0.0],"projection":"FLAT","projectionBlend":0.0,"texture":1,"type":"TEX_IMAGE_BL"},{"alphaMode":"STRAIGHT","inputs":[[0.0,0.0,0.0]],"is_active_output":false,"name":"lum_pillow_base_color_2","outputs":[[0.0,0.0,0.0,0.0],0.0],"projection":"FLAT","projectionBlend":0.0,"texture":2,"type":"TEX_IMAGE_BL"}]},"useCastShadows":true}},"name":"Lum_Pillow_material_2.003"},{"extensions":{"S8S_v3d_materials":{"gtaoVisible":true,"materialIndex":0,"nodeGraph":{"edges":[{"fromNode":1,"fromOutput":0,"toInput":0,"toNode":0},{"fromNode":2,"fromOutput":0,"toInput":0,"toNode":3}],"nodes":[{"inputs":[[0,0,0,0],[0,0,0,0]],"is_active_output":true,"name":"World Output","outputs":[],"type":"OUTPUT_WORLD_BL"},{"inputs":[[0.05087608844041824,0.05087608844041824,0.05087608844041824,1.0],1.0],"is_active_output":false,"name":"Background","outputs":[[0,0,0,0]],"type":"BACKGROUND_BL"},{"groundAlbedo":0.30000001192092896,"inputs":[[0.0,0.0,0.0]],"is_active_output":false,"name":"Sky Texture","outputs":[[0.0,0.0,0.0,0.0]],"skyType":"HOSEK_WILKIE","sunDirection":[0.0,0.0,1.0],"turbidity":2.200000047683716,"type":"TEX_SKY_BL"},{"inputs":[[0.800000011920929,0.800000011920929,0.800000011920929,1.0],1.0],"is_active_output":false,"name":"Background.001","outputs":[[0,0,0,0]],"type":"BACKGROUND_BL"}]},"useCastShadows":true}},"name":"Verge3D_Environment_World.001"}],"meshes":[{"extensions":{"S8S_v3d_mesh":{"colorLayers":{},"uvLayers":{"UVMap":"TEXCOORD_0"}}},"name":"Pipe.020","primitives":[{"attributes":{"NORMAL":2,"POSITION":1,"TANGENT":3,"TEXCOORD_0":4},"indices":0,"material":0,"mode":4},{"attributes":{"NORMAL":7,"POSITION":6,"TANGENT":8,"TEXCOORD_0":9},"indices":5,"material":0,"mode":4}]},{"extensions":{"S8S_v3d_mesh":{"colorLayers":{},"uvLayers":{"UVMap":"TEXCOORD_0"}}},"name":"Pipe.021","primitives":[{"attributes":{"NORMAL":12,"POSITION":11,"TANGENT":13,"TEXCOORD_0":14},"indices":10,"material":0,"mode":4}]}],"nodes":[{"extensions":{"S8S_v3d_node":{"frustumCulling":true,"groupNames":["B_PW_SH18_PL_T1_SM_12x12x2.5_FS"],"hidden":false,"hidpiCompositing":false,"objectColor":[1.0,1.0,1.0,1.0],"objectIndex":0,"renderOrder":0,"useShadows":true}},"mesh":0,"name":"B_PW_SH18_PL_T1_SM_12x12x2.5_FS","rotation":[0.5152791142463684,0.20294947922229767,-0.1270832121372223,0.82289057970047],"scale":[0.5723590850830078,0.6561084389686584,0.567607045173645],"translation":[0.009262032806873322,0.8714007139205933,0.000498652458190918]},{"children":[0],"name":"v3d_Proxy_Node_0_B_PW_SH18_PL_T1_SM_12x12x2.5_FS","scale":[0.5848559737205505,0.5848559737205505,0.5848559737205505]},{"extensions":{"S8S_v3d_node":{"frustumCulling":true,"groupNames":["B_PW_SH18_PL_T1_SM_12x12x2.5_FS"],"hidden":false,"hidpiCompositing":false,"objectColor":[1.0,1.0,1.0,1.0],"objectIndex":0,"renderOrder":0,"useShadows":true}},"mesh":1,"name":"B_PW_SH18_PL_T1_SM_12x12x2.5_FS_WLTS1_1","rotation":[0.5152791142463684,0.20294947922229767,-0.1270832121372223,0.82289057970047],"scale":[0.5723590850830078,0.6561084389686584,0.567607045173645],"translation":[0.009262032806873322,0.8714007139205933,0.000498652458190918]},{"children":[2],"name":"v3d_Proxy_Node_0_B_PW_SH18_PL_T1_SM_12x12x2.5_FS_WLTS1_1","scale":[0.5848559737205505,0.5848559737205505,0.5848559737205505]},{"children":[1,3],"extensions":{"S8S_v3d_node":{"frustumCulling":true,"groupNames":["B_PW_SH18_PL_T1_SM_12x12x2.5_FS"],"hidden":false,"hidpiCompositing":false,"objectColor":[1.0,1.0,1.0,1.0],"objectIndex":0,"renderOrder":0}},"name":"Sphere_Limit.005","scale":[1.709822654724121,1.709822654724121,1.709822654724121]}],"samplers":[{}],"scene":0,"scenes":[{"extensions":{"S8S_v3d_scene":{"aaMethod":"AUTO","iblEnvironmentMode":"PMREM","physicallyCorrectLights":true,"pmremMaxTileSize":512,"postprocessing":[{"edgeGlow":0.0,"edgeStrength":3.0,"edgeThickness":1.0,"hiddenEdgeColor":[0.10000000149011612,0.10000000149011612,0.10000000149011612,1.0],"pulsePeriod":0.0,"renderHiddenEdge":true,"type":"outline","visibleEdgeColor":[1.0,1.0,1.0,1.0]}],"shadowMap":{"esmDistanceScale":1.0,"renderReverseSided":false,"renderSingleSided":true,"type":"PCFPOISSON"},"toneMapping":{"type":"filmicBlender"}}},"extras":{"animFrameRate":24,"coordSystem":"Z_UP_RIGHT"},"name":"Scene","nodes":[4]}],"textures":[{"extensions":{"S8S_v3d_texture":{"colorSpace":"srgb"}},"name":"Cycle_6227S_10_Normal.png","sampler":0,"source":0},{"extensions":{"S8S_v3d_texture":{"colorSpace":"srgb"}},"name":"Cycle_6227S_10_Roughness.jpeg","sampler":0,"source":1},{"extensions":{"S8S_v3d_texture":{"colorSpace":"srgb"}},"name":"Cycle_6227S_10_Base Color.jpeg","sampler":0,"source":2}]}
