{"accessors":[{"bufferView":0,"componentType":5123,"count":76530,"max":[63934],"min":[0],"type":"SCALAR"},{"bufferView":1,"componentType":5126,"count":63935,"max":[0.6196342706680298,0.029021605849266052,0.6196315884590149],"min":[-0.6196354031562805,-0.14176274836063385,-0.6196380853652954],"type":"VEC3"},{"bufferView":2,"componentType":5126,"count":63935,"max":[0.9979667663574219,1.0,0.9980629086494446],"min":[-0.9979634881019592,-1.0,-0.998086154460907],"type":"VEC3"},{"bufferView":3,"componentType":5126,"count":63935,"max":[0.9999073147773743,0.9265151023864746,0.9999154210090637,1.0],"min":[-0.9999027848243713,-0.9288479685783386,-0.9998984932899475,-1.0],"type":"VEC4"},{"bufferView":4,"componentType":5126,"count":63935,"max":[0.13347268104553223,0.9294330477714539],"min":[0.06617337465286255,0.8439245223999023],"type":"VEC2"},{"bufferView":5,"componentType":5126,"count":63935,"max":[0.0,0.02539999783039093,-0.0],"min":[0.0,0.0,-0.0],"type":"VEC3"},{"bufferView":6,"componentType":5126,"count":63935,"max":[0.001026000827550888,0.000693202018737793,0.00040289759635925293],"min":[-0.001006007194519043,-0.0004634261131286621,-0.0004977583885192871],"type":"VEC3"},{"bufferView":7,"componentType":5126,"count":63935,"max":[0.0006692409515380859,0.000897139310836792,0.00036200881004333496],"min":[-0.0006696581840515137,-0.0009961128234863281,-0.000396139919757843],"type":"VEC3"},{"bufferView":8,"componentType":5123,"count":5424,"max":[5013],"min":[0],"type":"SCALAR"},{"bufferView":9,"componentType":5126,"count":5014,"max":[0.6194692850112915,0.020705416798591614,0.6194666028022766],"min":[-0.6194704174995422,-0.14176274836063385,-0.6194730997085571],"type":"VEC3"},{"bufferView":10,"componentType":5126,"count":5014,"max":[0.9957764744758606,1.0,0.9957504272460938],"min":[-0.9957804083824158,-1.0,-0.9956799745559692],"type":"VEC3"},{"bufferView":11,"componentType":5126,"count":5014,"max":[0.9971138834953308,0.8497315645217896,0.9971125721931458,1.0],"min":[-0.9970669746398926,-0.9161733388900757,-0.9971188306808472,-1.0],"type":"VEC4"},{"bufferView":12,"componentType":5126,"count":5014,"max":[0.206653892993927,0.916992723941803],"min":[0.15582728385925293,0.8448801636695862],"type":"VEC2"},{"bufferView":13,"componentType":5126,"count":5014,"max":[0.0,0.02539999783039093,-0.0],"min":[0.0,0.0,-0.0],"type":"VEC3"},{"bufferView":14,"componentType":5126,"count":5014,"max":[0.0004509091377258301,0.00028400076553225517,0.0007219612598419189],"min":[-0.00045108795166015625,-3.719329833984375e-05,-0.0007219612598419189],"type":"VEC3"},{"bufferView":15,"componentType":5126,"count":5014,"max":[0.0007077902555465698,6.647035479545593e-05,0.0003197789192199707],"min":[-0.000706896185874939,-6.267428398132324e-05,-0.0003197789192199707],"type":"VEC3"},{"bufferView":16,"componentType":5123,"count":8886,"max":[5655],"min":[0],"type":"SCALAR"},{"bufferView":17,"componentType":5126,"count":5656,"max":[0.6119146347045898,0.020705416798591614,0.6119118332862854],"min":[-0.6119157671928406,-0.14877912402153015,-0.6119184494018555],"type":"VEC3"},{"bufferView":18,"componentType":5126,"count":5656,"max":[0.9949938654899597,1.0,0.9949952960014343],"min":[-0.9949924349784851,-1.0,-0.994995653629303],"type":"VEC3"},{"bufferView":19,"componentType":5126,"count":5656,"max":[0.9855784177780151,0.9952691793441772,0.9986408352851868,1.0],"min":[-0.9986453056335449,-0.9955023527145386,-0.9986453056335449,-1.0],"type":"VEC4"},{"bufferView":20,"componentType":5126,"count":5656,"max":[0.14473123848438263,0.8991662263870239],"min":[0.09828034043312073,0.8231602311134338],"type":"VEC2"},{"bufferView":21,"componentType":5126,"count":5656,"max":[0.0,0.02539999783039093,-0.0],"min":[0.0,0.0,-0.0],"type":"VEC3"},{"bufferView":22,"componentType":5126,"count":5656,"max":[3.725290298461914e-05,2.980232238769531e-07,9.232759475708008e-05],"min":[-6.568431854248047e-05,-5.960464477539062e-07,-9.232759475708008e-05],"type":"VEC3"},{"bufferView":23,"componentType":5126,"count":5656,"max":[6.884336471557617e-05,4.172325134277344e-07,3.0219554901123047e-05],"min":[-7.286667823791504e-05,-1.7881393432617188e-07,-3.1948089599609375e-05],"type":"VEC3"},{"bufferView":24,"componentType":5126,"count":14,"max":[33.29166793823242],"min":[5.354166507720947],"type":"SCALAR"},{"bufferView":25,"componentType":5126,"count":14,"max":[0.0,0.9995663166046143,-0.0,1.0],"min":[0.0,-8.742277657347586e-08,-0.0,-1.0],"type":"VEC4"}],"animations":[{"channels":[{"sampler":0,"target":{"node":2,"path":"rotation"}}],"extensions":{"S8S_v3d_animation":{"auto":true,"loop":"REPEAT","offset":0.0,"repeatCount":1.0,"repeatInfinite":true}},"name":"Sphere_Limit.003","samplers":[{"input":24,"interpolation":"LINEAR","output":25}]}],"asset":{"generator":"Verge3D for Blender","version":"2.0"},"bufferViews":[{"buffer":0,"byteLength":153060,"byteOffset":0,"target":34963},{"buffer":0,"byteLength":767220,"byteOffset":153060,"target":34962},{"buffer":0,"byteLength":767220,"byteOffset":920280,"target":34962},{"buffer":0,"byteLength":1022960,"byteOffset":1687500,"target":34962},{"buffer":0,"byteLength":511480,"byteOffset":2710460,"target":34962},{"buffer":0,"byteLength":767220,"byteOffset":3221940},{"buffer":0,"byteLength":767220,"byteOffset":3989160},{"buffer":0,"byteLength":767220,"byteOffset":4756380},{"buffer":0,"byteLength":10848,"byteOffset":5523600,"target":34963},{"buffer":0,"byteLength":60168,"byteOffset":5534448,"target":34962},{"buffer":0,"byteLength":60168,"byteOffset":5594616,"target":34962},{"buffer":0,"byteLength":80224,"byteOffset":5654784,"target":34962},{"buffer":0,"byteLength":40112,"byteOffset":5735008,"target":34962},{"buffer":0,"byteLength":60168,"byteOffset":5775120},{"buffer":0,"byteLength":60168,"byteOffset":5835288},{"buffer":0,"byteLength":60168,"byteOffset":5895456},{"buffer":0,"byteLength":17772,"byteOffset":5955624,"target":34963},{"buffer":0,"byteLength":67872,"byteOffset":5973396,"target":34962},{"buffer":0,"byteLength":67872,"byteOffset":6041268,"target":34962},{"buffer":0,"byteLength":90496,"byteOffset":6109140,"target":34962},{"buffer":0,"byteLength":45248,"byteOffset":6199636,"target":34962},{"buffer":0,"byteLength":67872,"byteOffset":6244884},{"buffer":0,"byteLength":67872,"byteOffset":6312756},{"buffer":0,"byteLength":67872,"byteOffset":6380628},{"buffer":0,"byteLength":56,"byteOffset":6448500},{"buffer":0,"byteLength":224,"byteOffset":6448556}],"buffers":[{"byteLength":6448780,"uri":"MTLEG_FL13B_100.bin"}],"cameras":[{"extensions":{"S8S_v3d_camera":{"controls":"ORBIT","enablePan":true,"moveSpeed":1.0,"orbitMaxDistance":100.0,"orbitMaxPolarAngle":3.1415927410125732,"orbitMaxZoom":100.0,"orbitMinDistance":0.0,"orbitMinPolarAngle":0.0,"orbitMinZoom":0.009999999776482582,"orbitTarget":[0.0,0.0,-0.0],"rotateSpeed":1.0,"viewportFitInitialAspect":1.7777777777777777,"viewportFitType":"AUTO"}},"name":"Camera.001","perspective":{"aspectRatio":1.7777777777777777,"yfov":0.39959652046304894,"zfar":100.0,"znear":0.10000000149011612},"type":"perspective"}],"extensions":{"S8S_v3d_lights":{"lights":[{"color":[1.0,1.0,1.0],"decay":2,"distance":31.622776955095866,"intensity":1000.0,"name":"Light.003","profile":"blender","shadow":{"bias":-0.0018,"cameraFar":31.622776955095866,"cameraFov":0,"cameraNear":0.05000000074505806,"enabled":true,"expBias":2.5,"mapSize":512,"radius":1.0,"slopeScaledBias":2.5},"type":"point"},{"color":[1.0,1.0,1.0],"decay":2,"distance":31.622776955095866,"intensity":1000.0,"name":"Light.004","profile":"blender","shadow":{"bias":-0.0018,"cameraFar":31.622776955095866,"cameraFov":0,"cameraNear":0.05000000074505806,"enabled":true,"expBias":2.5,"mapSize":512,"radius":1.0,"slopeScaledBias":2.5},"type":"point"},{"color":[1.0,1.0,1.0],"decay":2,"distance":31.622776955095866,"intensity":1000.0,"name":"Light.005","profile":"blender","shadow":{"bias":-0.0018,"cameraFar":31.622776955095866,"cameraFov":0,"cameraNear":0.05000000074505806,"enabled":true,"expBias":2.5,"mapSize":512,"radius":1.0,"slopeScaledBias":2.5},"type":"point"}]},"S8S_v3d_materials":{"nodeGraphs":[{"edges":[{"fromNode":0,"fromOutput":0,"toInput":0,"toNode":4},{"fromNode":0,"fromOutput":0,"toInput":0,"toNode":5},{"fromNode":0,"fromOutput":0,"toInput":0,"toNode":2},{"fromNode":0,"fromOutput":0,"toInput":0,"toNode":3},{"fromNode":4,"fromOutput":0,"toInput":0,"toNode":1},{"fromNode":5,"fromOutput":0,"toInput":3,"toNode":1},{"fromNode":2,"fromOutput":0,"toInput":2,"toNode":1},{"fromNode":3,"fromOutput":0,"toInput":1,"toNode":6},{"fromNode":6,"fromOutput":0,"toInput":1,"toNode":1},{"fromNode":7,"fromOutput":0,"toInput":0,"toNode":6}],"name":"Normal_metal_1.002","nodes":[{"inputs":[],"is_active_output":false,"name":"Inputs","outputs":[[0.0,0.0,0.0]],"type":"GROUP_INPUT_BL"},{"inputs":[[0.0,0.0,0.0,1.0],[0.0,0.0,0.0],0.0,0.0],"is_active_output":true,"name":"Outputs","outputs":[],"type":"GROUP_OUTPUT_BL"},{"inputs":[[0.0,0.0,0.0]],"is_active_output":false,"name":"Tx roughness","outputs":[[0.0,0.0,0.0,0.0],0.0],"projection":"FLAT","projectionBlend":0.0,"type":"TEX_IMAGE_NONE_BL"},{"inputs":[[0.0,0.0,0.0]],"is_active_output":false,"name":"Tx normal","outputs":[[0.0,0.0,0.0,0.0],0.0],"projection":"FLAT","projectionBlend":0.0,"type":"TEX_IMAGE_NONE_BL"},{"inputs":[[0.0,0.0,0.0]],"is_active_output":false,"name":"Tx baseColor","outputs":[[0.0,0.0,0.0,0.0],0.0],"projection":"FLAT","projectionBlend":0.0,"type":"TEX_IMAGE_NONE_BL"},{"inputs":[[0.0,0.0,0.0]],"is_active_output":false,"name":"Tx metallic","outputs":[[0.0,0.0,0.0,0.0],0.0],"projection":"FLAT","projectionBlend":0.0,"type":"TEX_IMAGE_NONE_BL"},{"inputs":[1.0,[0.5,0.5,1.0,1.0]],"is_active_output":false,"name":"Normal normal","outputs":[[0.0,0.0,0.0]],"type":"NORMAL_MAP_BL","uvLayer":"UVMap"},{"inputs":[],"is_active_output":false,"name":"normalStrength","outputs":[1.0],"type":"VALUE_BL"}]}]}},"extensionsUsed":["S8S_v3d_materials","S8S_v3d_camera","S8S_v3d_lights","S8S_v3d_mesh","S8S_v3d_node","S8S_v3d_animation","S8S_v3d_scene"],"materials":[{"extensions":{"S8S_v3d_materials":{"gtaoVisible":true,"materialIndex":0,"nodeGraph":{"edges":[{"fromNode":2,"fromOutput":2,"toInput":0,"toNode":3},{"fromNode":3,"fromOutput":0,"toInput":0,"toNode":8},{"fromNode":8,"fromOutput":3,"toInput":6,"toNode":1},{"fromNode":8,"fromOutput":2,"toInput":9,"toNode":1},{"fromNode":8,"fromOutput":1,"toInput":22,"toNode":1},{"fromNode":1,"fromOutput":0,"toInput":0,"toNode":4},{"fromNode":6,"fromOutput":0,"toInput":0,"toNode":5},{"fromNode":7,"fromOutput":0,"toInput":7,"toNode":5},{"fromNode":8,"fromOutput":0,"toInput":6,"toNode":5},{"fromNode":5,"fromOutput":2,"toInput":0,"toNode":1}],"nodes":[{"inputs":[],"is_active_output":false,"name":"Mapping Frame","outputs":[],"type":"FRAME_BL"},{"inputs":[[0.800000011920929,0.800000011920929,0.800000011920929,1.0],0.0,[1.0,0.20000000298023224,0.10000000149011612],[0.800000011920929,0.800000011920929,0.800000011920929,1.0],1.399999976158142,0.0,0.0,0.5,0.0,0.5,0.0,0.0,0.0,0.5,0.0,0.029999999329447746,1.4500000476837158,0.0,0.0,[0.0,0.0,0.0,1.0],2.0,1.0,[0.0,0.0,0.0],[0.0,0.0,0.0],[0.0,0.0,0.0]],"is_active_output":false,"name":"Material","outputs":[[0,0,0,0]],"type":"BSDF_PRINCIPLED_BL"},{"inputs":[],"is_active_output":false,"name":"Tx Coords","object":-1,"outputs":[[0.0,0.0,0.0],[0.0,0.0,0.0],[0.0,0.0,0.0],[0.0,0.0,0.0],[0.0,0.0,0.0],[0.0,0.0,0.0],[0.0,0.0,0.0]],"type":"TEX_COORD_BL"},{"inputs":[[0.0,0.0,0.0],[0.0,0.0,0.0],[0.0,0.0,0.0],[3.0,3.0,3.0]],"is_active_output":false,"name":"Mapping","outputs":[[0.0,0.0,0.0]],"type":"MAPPING_BL","vectorType":"POINT"},{"inputs":[[0,0,0,0],[0,0,0,0],[0.0,0.0,0.0],0.0],"is_active_output":true,"name":"Output","outputs":[],"type":"OUTPUT_MATERIAL_BL"},{"inputs":[0.5,[0.5,0.5,0.5],0.0,0.0,[0.0,0.0,0.0],[0.0,0.0,0.0],[0.0,0.0,0.0,1.0],[0.0,0.002199632115662098,0.14122316241264343,1.0]],"is_active_output":false,"name":"Overlay","outputs":[0.0,[0.0,0.0,0.0],[0.0,0.0,0.0,0.0]],"type":"_BL"},{"inputs":[],"is_active_output":false,"name":"fadeTest","outputs":[0.0],"type":"VALUE_BL"},{"inputs":[],"is_active_output":false,"name":"fadeRGB","outputs":[[0.5,0.5,0.5,1.0]],"type":"RGB_BL"},{"inputs":[[0.0,0.0,0.0]],"is_active_output":false,"name":"steel_polished_sbsar","nodeGraph":0,"outputs":[[0.0,0.0,0.0,1.0],[0.0,0.0,0.0],0.0,0.0],"type":"GROUP_BL"}]},"useCastShadows":true}},"name":"Metal_material_1.002"},{"extensions":{"S8S_v3d_materials":{"gtaoVisible":true,"materialIndex":0,"nodeGraph":{"edges":[{"fromNode":1,"fromOutput":0,"toInput":0,"toNode":0},{"fromNode":2,"fromOutput":0,"toInput":0,"toNode":3}],"nodes":[{"inputs":[[0,0,0,0],[0,0,0,0]],"is_active_output":true,"name":"World Output","outputs":[],"type":"OUTPUT_WORLD_BL"},{"inputs":[[0.05087608844041824,0.05087608844041824,0.05087608844041824,1.0],1.0],"is_active_output":false,"name":"Background","outputs":[[0,0,0,0]],"type":"BACKGROUND_BL"},{"groundAlbedo":0.30000001192092896,"inputs":[[0.0,0.0,0.0]],"is_active_output":false,"name":"Sky Texture","outputs":[[0.0,0.0,0.0,0.0]],"skyType":"HOSEK_WILKIE","sunDirection":[0.0,0.0,1.0],"turbidity":2.200000047683716,"type":"TEX_SKY_BL"},{"inputs":[[0.800000011920929,0.800000011920929,0.800000011920929,1.0],1.0],"is_active_output":false,"name":"Background.001","outputs":[[0,0,0,0]],"type":"BACKGROUND_BL"}]},"useCastShadows":true}},"name":"Verge3D_Environment_World.001"},{"extensions":{"S8S_v3d_materials":{"nodeGraph":{"edges":[{"fromNode":1,"fromOutput":0,"toInput":0,"toNode":0}],"nodes":[{"inputs":[[0,0,0,0],[0,0,0,0],[0,0,0]],"is_active_output":true,"name":"Material Output","outputs":[],"type":"OUTPUT_MATERIAL_BL"},{"inputs":[[0.800000011920929,0.800000011920929,0.800000011920929,1.0],0.0,[0.0,0.0,0.0]],"is_active_output":false,"name":"Diffuse BSDF","outputs":[[0,0,0,0]],"type":"BSDF_DIFFUSE_BL"}]},"useCastShadows":true,"useShadows":true}},"name":"v3d_default_material"}],"meshes":[{"extensions":{"S8S_v3d_mesh":{"colorLayers":{},"uvLayers":{}}},"extras":{"targetNames":["Z1"]},"name":"FL13B-100.001","primitives":[{"attributes":{"NORMAL":2,"POSITION":1,"TANGENT":3,"TEXCOORD_0":4},"indices":0,"material":0,"mode":4,"targets":[{"NORMAL":6,"POSITION":5,"TANGENT":7}]},{"attributes":{"NORMAL":10,"POSITION":9,"TANGENT":11,"TEXCOORD_0":12},"indices":8,"material":0,"mode":4,"targets":[{"NORMAL":14,"POSITION":13,"TANGENT":15}]},{"attributes":{"NORMAL":18,"POSITION":17,"TANGENT":19,"TEXCOORD_0":20},"indices":16,"material":2,"mode":4,"targets":[{"NORMAL":22,"POSITION":21,"TANGENT":23}]}],"weights":[0.0]}],"nodes":[{"extensions":{"S8S_v3d_node":{"frustumCulling":true,"groupNames":["MTLEG_FL13B_100"],"hidden":false,"hidpiCompositing":false,"objectColor":[1.0,1.0,1.0,1.0],"objectIndex":0,"renderOrder":0,"useShadows":true}},"mesh":0,"name":"MTLEG_FL13B_100","rotation":[-0.0,-0.9238795638084412,0.0,0.3826834559440613],"scale":[0.9999998807907104,1.0,0.9999998807907104],"translation":[-2.8014183044433594e-06,0.40277916193008423,0.012698113918304443]},{"children":[0],"name":"v3d_Proxy_Node_0_MTLEG_FL13B_100","scale":[0.5848559737205505,0.5848559737205505,0.5848559737205505]},{"children":[1],"extensions":{"S8S_v3d_node":{"frustumCulling":true,"groupNames":["MTLEG_FL13B_100"],"hidden":false,"hidpiCompositing":false,"objectColor":[1.0,1.0,1.0,1.0],"objectIndex":0,"renderOrder":0}},"name":"Sphere_Limit.003","scale":[1.709822654724121,1.709822654724121,1.709822654724121]}],"scene":0,"scenes":[{"extensions":{"S8S_v3d_scene":{"aaMethod":"AUTO","iblEnvironmentMode":"PMREM","physicallyCorrectLights":true,"pmremMaxTileSize":512,"postprocessing":[{"edgeGlow":0.0,"edgeStrength":3.0,"edgeThickness":1.0,"hiddenEdgeColor":[0.10000000149011612,0.10000000149011612,0.10000000149011612,1.0],"pulsePeriod":0.0,"renderHiddenEdge":true,"type":"outline","visibleEdgeColor":[1.0,1.0,1.0,1.0]}],"shadowMap":{"esmDistanceScale":1.0,"renderReverseSided":false,"renderSingleSided":true,"type":"PCFPOISSON"},"toneMapping":{"type":"filmicBlender"}}},"extras":{"animFrameRate":24,"coordSystem":"Z_UP_RIGHT"},"name":"Scene","nodes":[2]}]}
