{
	"asset":{
		"generator":"Khronos glTF Blender I/O v3.6.28",
		"version":"2.0"
	},
	"extensionsUsed":[
		"KHR_texture_transform"
	],
	"extensionsRequired":[
		"KHR_texture_transform"
	],
	"scene":0,
	"scenes":[
		{
			"extras":{
				"v3d_export":{
					"collections_exported_idx":4
				},
				"v3d":{
					"outline":{}
				},
				"cl_settings":{
					"cl_selected_mode":"TAPE STATE",
					"cl_running_bool":1,
					"cl_menuact_str":"ACTION_EXITCANCEL"
				},
				"gizmo_show_hide":1,
				"manage_props":{},
				"muv_uvw_enabled":1,
				"muv_unwrap_constraint_enabled":1,
				"quick_pipe_fill_caps":0,
				"td":{
					"texture_size":2,
					"uv_space":"2.9999 %",
					"density":"10.240",
					"density_set":"10.24"
				}
			},
			"name":"Scene",
			"nodes":[
				0,
				1
			]
		}
	],
	"nodes":[
		{
			"extras":{
				"v3d":{}
			},
			"mesh":0,
			"name":"A1_A_SH17_PL_T3_PL_4x28x24_TS1",
			"translation":[
				-8.716888260096312e-06,
				0.3774988651275635,
				0.04796609282493591
			]
		},
		{
			"extras":{
				"v3d":{}
			},
			"mesh":1,
			"name":"A1_A_SH17_PL_T3_PL_4x28x24_TS1_WLTS1_1",
			"translation":[
				0,
				0.44316744804382324,
				0.05031716451048851
			]
		}
	],
	"materials":[
		{
			"doubleSided":true,
			"extras":{
				"hubs_component_list":{},
				"blenderkit":{},
				"v3d":{}
			},
			"name":"Arm_Material_1",
			"normalTexture":{
				"extensions":{
					"KHR_texture_transform":{
						"offset":[
							0,
							-7
						],
						"scale":[
							8,
							8
						]
					}
				},
				"index":0
			},
			"pbrMetallicRoughness":{
				"baseColorTexture":{
					"index":1,
					"texCoord":4
				},
				"metallicFactor":0,
				"metallicRoughnessTexture":{
					"index":2,
					"texCoord":4
				}
			}
		}
	],
	"meshes":[
		{
			"extras":{
				"v3d":{
					"line_rendering_settings":{}
				}
			},
			"name":"Cube.007",
			"primitives":[
				{
					"attributes":{
						"POSITION":0,
						"NORMAL":1,
						"TEXCOORD_0":2,
						"TEXCOORD_1":3,
						"TEXCOORD_2":4,
						"TEXCOORD_3":5,
						"TEXCOORD_4":6
					},
					"indices":7,
					"material":0
				},
				{
					"attributes":{
						"POSITION":8,
						"NORMAL":9,
						"TEXCOORD_0":10,
						"TEXCOORD_1":11,
						"TEXCOORD_2":12,
						"TEXCOORD_3":13,
						"TEXCOORD_4":14
					},
					"indices":15,
					"material":0
				}
			]
		},
		{
			"extras":{
				"v3d":{
					"line_rendering_settings":{}
				}
			},
			"name":"Pipe.001",
			"primitives":[
				{
					"attributes":{
						"POSITION":16,
						"NORMAL":17,
						"TEXCOORD_0":18
					},
					"indices":19
				}
			]
		}
	],
	"textures":[
		{
			"sampler":0,
			"source":0
		},
		{
			"sampler":0,
			"source":1
		},
		{
			"sampler":0,
			"source":2
		}
	],
	"images":[
		{
			"mimeType":"image/png",
			"name":"Buff_6518_49_Normal",
			"uri":"1/Buff_6518_49_Normal.png"
		},
		{
			"mimeType":"image/jpeg",
			"name":"Blank_BaseColor",
			"uri":"1/Blank_BaseColor.jpg"
		},
		{
			"mimeType":"image/png",
			"name":"Blank_BaseColor",
			"uri":"1/Blank_BaseColor-1.png"
		}
	],
	"accessors":[
		{
			"bufferView":0,
			"componentType":5126,
			"count":2060,
			"max":[
				0.7123326063156128,
				0.26721447706222534,
				0.36594173312187195
			],
			"min":[
				-0.7122045159339905,
				-0.35253530740737915,
				-0.36026978492736816
			],
			"type":"VEC3"
		},
		{
			"bufferView":1,
			"componentType":5126,
			"count":2060,
			"type":"VEC3"
		},
		{
			"bufferView":2,
			"componentType":5126,
			"count":2060,
			"type":"VEC2"
		},
		{
			"bufferView":3,
			"componentType":5126,
			"count":2060,
			"type":"VEC2"
		},
		{
			"bufferView":4,
			"componentType":5126,
			"count":2060,
			"type":"VEC2"
		},
		{
			"bufferView":5,
			"componentType":5126,
			"count":2060,
			"type":"VEC2"
		},
		{
			"bufferView":6,
			"componentType":5126,
			"count":2060,
			"type":"VEC2"
		},
		{
			"bufferView":7,
			"componentType":5123,
			"count":8832,
			"type":"SCALAR"
		},
		{
			"bufferView":8,
			"componentType":5126,
			"count":1448,
			"max":[
				0.7189279198646545,
				0.2597311735153198,
				0.35844120383262634
			],
			"min":[
				-0.7187537550926208,
				-0.3514769673347473,
				-0.35276949405670166
			],
			"type":"VEC3"
		},
		{
			"bufferView":9,
			"componentType":5126,
			"count":1448,
			"type":"VEC3"
		},
		{
			"bufferView":10,
			"componentType":5126,
			"count":1448,
			"type":"VEC2"
		},
		{
			"bufferView":11,
			"componentType":5126,
			"count":1448,
			"type":"VEC2"
		},
		{
			"bufferView":12,
			"componentType":5126,
			"count":1448,
			"type":"VEC2"
		},
		{
			"bufferView":13,
			"componentType":5126,
			"count":1448,
			"type":"VEC2"
		},
		{
			"bufferView":14,
			"componentType":5126,
			"count":1448,
			"type":"VEC2"
		},
		{
			"bufferView":15,
			"componentType":5123,
			"count":6720,
			"type":"SCALAR"
		},
		{
			"bufferView":16,
			"componentType":5126,
			"count":1476,
			"max":[
				0.7138076424598694,
				0.19654136896133423,
				0.35858121514320374
			],
			"min":[
				-0.7138078808784485,
				-0.4171695113182068,
				-0.3576169013977051
			],
			"type":"VEC3"
		},
		{
			"bufferView":17,
			"componentType":5126,
			"count":1476,
			"type":"VEC3"
		},
		{
			"bufferView":18,
			"componentType":5126,
			"count":1476,
			"type":"VEC2"
		},
		{
			"bufferView":19,
			"componentType":5123,
			"count":7680,
			"type":"SCALAR"
		}
	],
	"bufferViews":[
		{
			"buffer":0,
			"byteLength":24720,
			"byteOffset":0,
			"target":34962
		},
		{
			"buffer":0,
			"byteLength":24720,
			"byteOffset":24720,
			"target":34962
		},
		{
			"buffer":0,
			"byteLength":16480,
			"byteOffset":49440,
			"target":34962
		},
		{
			"buffer":0,
			"byteLength":16480,
			"byteOffset":65920,
			"target":34962
		},
		{
			"buffer":0,
			"byteLength":16480,
			"byteOffset":82400,
			"target":34962
		},
		{
			"buffer":0,
			"byteLength":16480,
			"byteOffset":98880,
			"target":34962
		},
		{
			"buffer":0,
			"byteLength":16480,
			"byteOffset":115360,
			"target":34962
		},
		{
			"buffer":0,
			"byteLength":17664,
			"byteOffset":131840,
			"target":34963
		},
		{
			"buffer":0,
			"byteLength":17376,
			"byteOffset":149504,
			"target":34962
		},
		{
			"buffer":0,
			"byteLength":17376,
			"byteOffset":166880,
			"target":34962
		},
		{
			"buffer":0,
			"byteLength":11584,
			"byteOffset":184256,
			"target":34962
		},
		{
			"buffer":0,
			"byteLength":11584,
			"byteOffset":195840,
			"target":34962
		},
		{
			"buffer":0,
			"byteLength":11584,
			"byteOffset":207424,
			"target":34962
		},
		{
			"buffer":0,
			"byteLength":11584,
			"byteOffset":219008,
			"target":34962
		},
		{
			"buffer":0,
			"byteLength":11584,
			"byteOffset":230592,
			"target":34962
		},
		{
			"buffer":0,
			"byteLength":13440,
			"byteOffset":242176,
			"target":34963
		},
		{
			"buffer":0,
			"byteLength":17712,
			"byteOffset":255616,
			"target":34962
		},
		{
			"buffer":0,
			"byteLength":17712,
			"byteOffset":273328,
			"target":34962
		},
		{
			"buffer":0,
			"byteLength":11808,
			"byteOffset":291040,
			"target":34962
		},
		{
			"buffer":0,
			"byteLength":15360,
			"byteOffset":302848,
			"target":34963
		}
	],
	"samplers":[
		{
			"magFilter":9729,
			"minFilter":9987
		}
	],
	"buffers":[
		{
			"byteLength":318208,
			"uri":"felipewashere.bin"
		}
	]
}
